<svg id="Layer_1" xmlns="http://www.w3.org/2000/svg" viewBox="0 0 1510.1 474.7"><style>.st1{fill-rule:evenodd;clip-rule:evenodd}</style><switch><g opacity=".72"><path class="st1" d="M133.1 251.6c0 .1.6.7.7.7.6.8 1.2.9 1.8 1.7 2.7 1.1 5.2 1.7 8.1-.3l.6-.3c1.7-.9 3-.7 4.3-2.8 1.8-1.3 1.6-2.7 2.4-5 .4-3.7.9-4.9-1.2-7.1-1.3-1.7-2.4-1.5-4-1.5-1.7-1.8-5.9-4.6-9 .7-2.3.7-2.4.1-3.7 3.5-.6 1.6-.4 1.1-1.1 2-1.5 1-1.7 1.6-1.6 4.2.4 3.2 1.9 2 2.7 4.2zm10.6-8.9zm1.3 6.1c-.1 0-.1 0 0 0-.1 0 0 0 0 0z"/><path class="st1" d="M299.3 294.2c-6.7-5.9-6.7-5.8-13.7-1.6-.4.2-.8.3-1.2.5-3.5 2.4-8.2 3.1-10.7 7.1-2.3.7-2.8 2.9-4.1 4.4-2.1 1.2-4.2 3.4-5.7-.7-.1-.2.3-.1-.1-.2 0-.9-.6-2.4-.6-3.2.2-.1 0-.6.2-.6-1-7.3-4.7-27.1-5.1-29.2-.3-1.4-1.7-3.4-2.9-5-1-.6-2-1.2-2.9-2-.1-.1-.2-.1-.3-.1l-7.1 10.2c-.5 1.5-1 3.2-1.8 4.6-2 1.1-3.8 3.3-3.1 4.8 1.5 3-1 2.9-2.1 3.9-1.6.3-2.4 1.7-3.3 2.8-1.8.8-.2 2.9-1.3 4-.2.1-.3.2-.5.3-3.3 3.6-6.7 7.2-8 12.1-4.2 2.6-5.5 7.6-8.7 11.1-1.3.5-2 1.6-2.5 2.9-1.7 1.8-3.3 3.6-5 5.3l-1.8 1.8c-2.2.9-3.8 2.6-5.4 4.3-3.2 1.9-3.3-.3-3.4-2.6 1.8-.8 1.3-2.2.9-3.5-.4-1.3.7-2.3.9-3.4.8-.7 1.5-1.5 1.7-2.7 1-.6 2-1.2 1.1-2.6-.8-1.3-.1-2.4.6-3.5.3-.5.7-1.1 1-1.6 1.6-.9-.6-2.7.8-3.6 1.3-1.2.9-2.3-.1-3.4-.3-1.9-.4-3.7.9-5.3 3-2.7.4-6.5 1.8-9.5-.1.2-.2.3-.3.5.1-.2.1-.4.3-.5 1.6-4.2-1.3-5.6-4.2-7-.6-1.1-1.8-1.3-2.9-1.6-3.4-1.1-6.9-4.6-9.9.8-.5.8-1.9.1-2.9-.3-1.2-.4-2-1.8-3.4-1.5-2.3-2-4.5-2.2-7.4-.8-2.2 1-3.5 2.8-5.1 4.3-3.1 2.9-7.7 3.5-10.5 7-.4 0-.9 0-1.3.1l-.8.8c1.4 3.3-2.3 2.2-3.1 3.6-.1 0-.2.1-.2.1-2.2 2.5-4.7 5.4-6.8 8-.3.5-.5 1-.8 1.5-2 2.9-4.1 5.8-6.1 8.8-.6 2.3-1.2 4.7-2.9 6.4-.7 1.5-1.3 3-1.9 4.2.4 1.1 1 2.2.3 3.3-.1.1-.2.2-.2.4-.5.5-1.5.7-2.2 1.2-.1.6-.3 1.4-.4 2.2 0 .5.1 1 .1 1.5l-.4.4c-.1 1.3-.2 2.6-.3 3.8 0 .4 0-1.2-.1-.8-.1.9-.1-.5-.1-.5h-1.7s0 2.1-.1 2.1c-.6.1-1.3-.9-1.9-.9-.2-.1-.5-1.2-.7-1.2h-.1v2c-1.2-.3-2.3.4-3.5.1-.7-.8-1.3-1.2-2-2-2.2-1.3-3.8-2.5-2.1-5.2-.2-.7-.3-1.4-.5-2.2-.2-.1-.4-.1-.6-.1-.1-.6-.1-1.1-.2-1.7.1-.2.2-.4.2-.7h.1c-.4-2.4-.8-5-.8-7.1h-.3c-.2-.2-.5-.2-.7-.2-.5-1.2.5-1.6 1.1-2.2 0 0 .1 0 .1-.1.4-5.4.7-16.8 2.9-20.1.3-.4.6-.8 1-1.1 1.1-1 1.5-3.7 2.4-5.1 1.5-2.5 3.1-3.7 4.6-6 1.3-1.9 1.7-4-1.6-4.6-1.4-4-5.9-3.1-8.5-5.5-.9-.8-2.3-1.7-3.8-1.9l-3.2 3.9c0 .3-.1.5-.2.7-.2.2-.4.4-.5.7-4 7.8-9.5 14.6-15.3 21.1-1.5 1.7-3.5 3.1-4.4 5.3-1.4 3.6-4.7 5.8-6.9 8.8-3.8 1-3.2 5.4-5.8 7.4-3.4 2.7-6.7 5.6-10.1 8.4-.8.4-1.6.7-2.3 1.1-.9-.3-1.7-.6-2.6-1-.3-.6-.7-1.2-1-1.7-.2-1.8 1.8-3.3.9-5.2.3-.9.6-1.8 1-2.6 1.5-4.9 4.1-9.5 3.5-14.8 3.4-1.9.5-4.6 1-6.9 2.4-2.2 4.4-4.7 5-8.1 1.8-.7.4-2.3.9-3.4 2.5-.8 2.7-3.7 4.5-5.1 1.4-2.5 2.6-5 1.6-8 .8-.4 1.2-1 1.5-2 1.5-5.9 4.9-11.3 8-16.1 4.3-6.8 7.5-14.2 11.6-21 1.2-.5 2-1.2 1.7-2.7.3-.3.6-.7.8-1 2.1-.5 1.5-1.9 1-3.3 1.5-.2 2.4-1.1 2.7-2.6 3.4-4.9 2.6-11.9 7.9-15.9 2.4-1.8 3.6-4.1 4.1-6.9 4.7-4.5 3.5-11.8-3.7-13-1.4-.2-2.7-.7-4.1-1.1-1.1-1.1-2.1-2.2-3.9-2.4-2.7-.3-1.9 1.1-1.6 2.5-.7.8-2.7.9-2 2.2 1.7 2.9-.8 3-2.2 3.9-3.8 2.4-5 6.4-6.2 10.4-.8 1.5-4 1.8-2.5 4.6-2.2 1.5-3.7 3.3-4.3 6-1.8.9-1.8 2.9-2.9 4.2-.8 2.7-1.6 5.3-2.5 8-1 .2-2.2.5-1.8 1.7.6 1.9-1 2.4-1.8 3.4-3.3 4.2-4.8 9.4-7.3 13.8-2.6 4.6-4.7 9.2-6.4 14.1-2.5 3.4-6 6.2-5.7 11.1 0 .6-1.3 1.4-2 2-4.7-.9-8.7-3.6-13.9-3.3-4.6.3-8.2 1.1-10.3 5.3-2.3 4.5-5.5 7.6-10.5 8.7-2.4 1.9-6.3 2-7.1 5.9-1.8 1.1-1.7 3.9-2.6 4.6-3.8 3-4.6 8.4-8.9 10.8-3.3.9-.3 4.1-2.2 5.7-2.3 2-1.6 4.4-.3 6.7-.9.9-2.7.6-2.7 2.7-.1 3-1.7 5.7-2.2 8.5-.6 3.6-1.8 7.8 1.3 11.3-3.2 2-3.6 6.1-.9 10 .8 4.3 2.7 7.8 7.1 9.4 1 1.7 2.6 2.1 4.3 2.5.2-.2.5-.3.7-.3-.2.1-.5.4-.7.5 4.5 3.3 5.8 2.3 8 .2h.1v-.3-.9-.9c3.4 0 6.9-1.4 8.5-5.1 2.9-1.1 4.7-2.9 5.8-5.7.4-.3.8-.5 1.1-.8 2.7-.5 2.3-3.3 3.7-4.8 1-.2 1.6-.7 1.7-1.7.3.1.5 0 .7-.3 1.6-1 3.3-2 4.1.8.6 3.8 1.9 7.1 6.1 8.1.8 3.9 3.2 5.9 7.2 6 1.1 1 2.8-.6 3.7 1 2.7-1.7 6.8 1.5 8.8-2.6.5-.3 1-.5 1.5-.8 2.5-.4 2-3.3 3.7-4.5 2.6-1 4.5-2.8 6-5.1 1.2-.6 2.3-1.4 2.6-2.8h-.1c.6-.6 1.2-1.1 1.8-1.7 1.2-1.2 2.4-2.3 3.6-3.5-.1 0-.2 0-.3-.1.1 0 .2.1.3.1 1.9-1.9 3.9-3.7 5.1-6.2.3-.3.6-.6.9-.8 1.8-.9 2.3-2.9 3.6-4.3.5 0 1.1 0 1.6-.1 1.4 1.1.2 3.3 1.8 4.3.1 1.1 0 2.3.3 3.4 1.4 4.8 2.9 9.6 6.8 13.1.2.2.2.3.3.6 1.1 1 2.4 2.1 3.9 3.1h.1l.3.3c.7.4 1.4.9 2.2 1.3 2 .8 4.2 1 6.3 1.2 3.8.4 5.4-.5 9.5-3.9 1-1.4 1.4-1 1.3-.8-.6 1-1 2 .3 2.8 1.4.8.6 3.3 2.7 3.6h-.1c.4 3.6 3.6 2.4 5.5 3.3 3 4.1 7.1 4.1 11.4 2.9 1.8.3 3.1-.7 4.7-1.5 3.1-1.7 4.9-3.9 6.5-7.3 0-.1.5-.2.4-.3.1 0 .8 0 .8-.1v-3.7h-1.2s.6 2 .6 2.1l.6 2.1v-.4c2.1-2.5 5.4-3.3 7.4-6.1h.1l.2-.1c1.8 1 2.5-.7 3.5-1.6 1.2-.9.1-2.5.9-3.5 1-.3 2.1-.5 3.1-.8 1.3.7 1.9 1.9 2.4 3.2.9 2.5 2.4 4.6 4.6 6.1 5.8 5 9.7 5.4 14 1.5.9-.6 1.8-1.1 2.6-1.7.3.1.5.1.8.1 1.5-1.7 3.8-6 6.1-8.6 0-.1.1-2 .1-2 .7 0 1.4.3 2.1-.5-.1-.3-.2.3-.3-.1l-.1.3c.5-.5 1.4-.5 2.3-.8 1.1-1.3 2.2-2.4 3.1-3.5 0-.2-.1-.4-.2-.6.6-.5 1.2-.9 1.9-1.3.6-.8 1.2-1.5 1.6-2 1.4-1.9 3.2-4.2 5.1-6.5-.3-.4-.8-.9-.5-1.3.7-.1 1.4-.2 1.8-.9.2 0 .5-.1.7-.1 1.4-1.6 2.7-3.1 3.7-4.3 1-3.2 3.3-5.5 5.5-7.9 1-1.7 2.1-3.3 2.7-4.3l-.6-.9c.5-.6 1.1-.8 1.7-1l1.6-2.6c-2.1-1.4-.8-2.8.1-4.3.2-.4.6-.8 1.1-.5 0 0 5.8 3.9 6.2 9.2.4 5.3 2 12.2 2 12.2l-2.9 2.5c-.5.7-1 1.4-1.8 2.1-3.4 3.3-6.8 7.3-8.9 12-2 1.9-2 4.5-2.7 6.9-1.6 8.1 3.4 12.9 8.8 17.4 1.5 1.1 3.1 2.1 5.1 1.6 5.6 1.8 8.9 1.1 11.5-2.4.6-1.1 1.2-2.2 1.9-3.3 1.3-.3 2.6-.5 3.4-1.7 2.1-3.5 3.1-7.2 3.5-11.2.2-1.9-1.1-2.2-2-3 .1-1.4-1.9-3-1.8-4.4-.6-2.6-2-5.2-2-7.8v.2-.3l2 .1c.2-.3 1.5-.5 1.9-.8h.6c2.3-2.1 8.5-7.6 14.1-12.8-.2-.2-.4-.3-.7-.5.6-.7 1.4-.6 2.2-.7 1.9-1.7 3.7-3.4 5.4-4.9-.2-.4-.4-.8-.5-1.2.6-.4 1.2-.2 1.8 0 .7-.7 1.4-1.3 2-1.9-.8-.3-1.8-.5-1.2-1.7 1.5.2 2.8-.1 3.8-.7.9-.9 1.9-2.3 2.6-3.4-.1-.6-1.5-1.1-2.1-1.7zm-258.8 49l-.1-.2.1.2zm1.7-1.8l-.2-.2.2.2zm15.5.7c.1 0 .1-.1.2-.1v.1h-.2zm.7-52.7c-.7 2.5-1.9 5.8-3.9 10-7.2 15-34.7 53.4-38.8 44.5-4.1-8.9 18.2-47.5 21.8-50.6 3.6-3 20.3-15.7 21-11.9 0 0 1.3 1.2.4 6 .2.8 0 1.5-.5 2zM98 307.2c-.1 0-.1-.1 0 0l-.1-.1.1.1c-.1-.1 0-.1 0 0zm38.9 39.1l-.6-.3c.3 0 .4.1.6.3.1-.1 0 0 0 0zm5.3-18.9c0-.1.1-.1.1-.2.1 0 .2.1.3.1-.1.1-.2.1-.4.1zm22-32.5v.2h-.1c.1-.1.1-.2.1-.2zm-8.8 12.3zm-1.9 15.8c0 .1.1.1.1.2-.1 0-.1-.1-.2-.1 0-.1.1-.1.1-.1zm29.9 3.1c.1 0 .1 0 0 0 .1 0 .1 0 0 0 .1.1.1.1 0 0zm-8.8-4.9c-9.8 18.7-22.2 21.8-22.2 21.8-10.9.2 8.3-32.2 11.6-35.8 3.3-3.5 19.8-15 21.6-14.2 1.6 1-1.2 9.5-11 28.2zm67.2-36.4c.1.2.3.3.5.5-.3-.1-.4-.3-.5-.5zm17.3 67.9s0-.1 0 0c0-.1-.1-.1 0 0-.1-.1 0-.2 0-.2v.2c0-.1.1-.1 0 0 .1-.1 0 0 0 0zm-3.9-3.6c-6.8-.4-3.9-6.5 3.5-12.2 0 0 3.3 12.6-3.5 12.2zm11.6-27c.1 0 .1-.1.2-.1v.1h-.2zm1.9 9.5zm22-26.6s0-.1 0 0c0-.1 0-.1 0 0zM506.7 291.5c1.1-1 2.4-1.8 1.7-3.6-.3-.8-.8-1.6-1.2-2.4-.1-.3-.1-.5-.3-.8-.2-.6-.2-1.2-.1-2 .2-.9-.8-1.7-2-1.7-1.6-2.5-3.9-5-6.5-6.2-1.3-.8-3.3-.8-4.9-1.4-4-.9-11.1 3.5-14.7 7.9-5 6.1-7.6 13.5-12.2 19.8-.1.1-.2.2-.2.3-.9 1.3-.3 2.7.1 4-6.1 5.2-6.3 12.1-6 19.3-2 3.4 0 6.5.8 9.7 2.1 3.1-.5 4.1-2.5 5.4-1.1.2-2.1.6-2.8 1.5-.5.4-1 .7-1.5 1.1-1.8-.3-3.1.8-4.5 1.5h.1c-2.9 1.2-6 1.8-8.6 3.6-.3.1-.6.2-.8.2-1.4.1-2.6-.1-3.4-.7-2.2-1.7-3.8-9.2-5-14.8.7-.9.6-1.6-.4-1.9-.4-1.8-.7-3.3-.9-4 0-.1-.1-.2-.1-.3v-.1c-.4-1.5-.5-4.3-.3-7.3 2.1-1.3.7-3.5.5-5.5 0-.2.1-.4.1-.6.8-.9.4-2.1.6-3.2 0-.1 0-.2.1-.3v-.1c.1-.4.4-.7.8-1 3.1-1 1.5-3.8 2-5.7 2.6-1.7 2.2-4.7 3.1-7 2.2-5.1 3.5-10.3 4.8-15.6 2-.3 2.4-1.8 2.1-3.5-.3-1.7.4-3 .9-4.4 1.7-5 3.7-9.9 6.1-14.5.7-1.4.7-3.5 2.7-4.1 3.1-.2 1.4-3 2.1-4.4 2.2-4.6 5-9.2 4.8-14.7 3-1.4-.4-4.3 1.5-6 2.2-2 .2-3.7-1.1-4.3-3.5-1.7-6.3-4.6-9.7-6.3-1.6-1-3.3-.8-5-.8-2.9 0-5.3.2-5.1 4.2.2 4.7-2.3 8.7-4.2 12.7-.9 1.9-.9 3.1 2 4.6-5.5.3-6.5 4-7.2 7-1.6 6.6-4.2 12.5-8.4 17.8-.2.3-.3.6-.4.9-.8 1.4-1.5 2.8-2.2 4.3-1 .6-2 1.2-1.6 2.6.3.3.5.6.7.9-.2-.3-.5-.6-.7-.9l-3.6 6.9c-1 1.6-1.3 4.7-4.5 2.2-.2-.1-1.2.5-2.7.9v.5c-.2 0-.3-.4-.5-.3 0 0-.1-.2-.1-.1-.6.2-1.2.2-1.9.3-5.8 1.6-14.4 4.5-16.3 5.9-.7.6-2.5 2.1-4.7 4.1.1.2.1.4.2.7l-.9.9c-.4 0-.8.1-1.2.1-2.1 1.9-4.4 4.1-6.6 6.3v.6c-.3.3-.6.5-.9.8-.2.1-.4.1-.6.2-2.3 2.3-4.4 4.6-5.8 6.4-.5.7-1 1.4-1.5 2.2-.7 1.2-1.5 3.3-2.4 5.8.3 1.9-.2 3.2-1.4 4.2-.2.6-.4 1.3-.6 1.9.4.2.7.6.9 1.1-.5.2-.9.4-1.4.6-.4 1.2-.8 2.5-1.1 3.7.3.5.6 1.1.7 1.6-2.4 1.8-3.9 12.8-2 15.1.1.1.3.1.4.1 2.7 3.2 3.6 8.1 8.7 8.9.3.2.6.4.9.7 7.9 6.1 14.7 3.2 21.1-2.6 1.4-.7 2.8-1.3 4.2-2 2.9-2.2 5.7-4.5 6.4-8.3.8-.6 1.6-1.2 2.3-1.8 1.7-.1 2.4-1.2 2.7-2.6 2.6-.2 2.8-4.4 6-3.5.2.3.3.6.5.9-.5 3-.2 5.6 2.9 7.1.6 2.6.5 5.5 3.5 6.9 1.5 3.5 5.9 3.7 7.7 6.9 2 1.5 2.4 5.2 6 4.4 2.1-.5 4.3 0 6.4 0 .9.2 1.8.5 2.7.7 2 0 4.1 0 6.1.1 4.3 2.3 7.3-1.1 10.7-2.5 3.5.2 4.9-3.2 7.6-4.5.9.1 1.7.2 2.6.2 3.2 1.9 4.8 5.9 8.8 6.8 0 .1.1.1.1.2 2.7 1 6.3 2 10.7 2.8.2-.1.4-.1.6-.2 1.7-.1 3.5-.2 5.2-.3 3.4.6 5.1-1.2 5.8-4.1.5-2.2-.6-2.9-2-3.3-2.1 0-4.3 0-6.5-.1-4.6-.1-8.7-2.1-10.9-3.3-.6-.1-1.2-.4-1.7-1.1-1.1-1.7-2.2-4-.4-6.2 4.7-.6 6.4-5.5 10.4-7.1.1.1.1.3.2.4.1.1.3.1.4.1 1-2 4.9-2 4.3-5 .6-.5 1.6-1 1.6-1.7 1.7-1.6 2.5-4.1 1.6-5 .4-.8.7-4 1.2-4h1.3c.9 0 .8 1.4.9.2.1-1.1.2-.8-.7-.9l-.1.4c.4-.8.7-1.3 1.1-2.1.8-.4 1.3-1.3 1.5-3.3 4.7-.2 1.7-2 .9-3.4.1-.3.2-.6.3-1 1.4-.8 1.8-1.5.6-2.3.1-.5.2-.9.3-1.4 1.4-1.5 1.9-3.3.8-5.4.1-1.6.2-3.1.1-4.7.3.1.4 0 .4-.3 2.3-1.3.1-2.7-.3-4-.2-.8-.2-1.2-.1-1.6 0 .1 0 0 0 0zm-145.6 50.7zm9.6-20.2c.1 0 .1 0 0 0 .1 0 0 0 0 0zm4.4-10.2c0-.1-.1-.2-.1-.2h.1l.1.1c-.1 0-.1.1-.1.1zm1.7 12zm29.7-39.3c0 .1 0 .1 0 0 0 .1 0 .1 0 0 0 .1 0 .1 0 0zM382 304.4c0 .1.1.1.1.2h-.2s.1-.1.1-.2zm8.7 31.5zm8-11.2c0-.1-.1-.1 0 0 0-.1 0-.1 0 0 0-.1 0 0 0 0zm3.4 7zm4.4-5.3s.1 0 0 0zm-4.4-12.4c-5.9 12.9-20.9 20.3-20.9 20.3-5.9-.9 1.1-13.3 5.4-21.8 4.4-8.5 16.1-16.1 18.3-16.1 2.2 0 3.1 4.7-2.8 17.6zm65.2-3.3c-.1-.2-.2-.4-.2-.5.2.2.4.4.4.6 0-.1-.1-.1-.2-.1zm20.3-22.6s-.1 0 0 0c-.1 0-.1 0 0 0zm6.7 9.8c-1.5 6.8-13.9 28.1-17.2 29-3.3.9-5-8.5-1.1-16.3 3.9-7.9 10.2-14.8 10.2-14.8s9.7-4.7 8.1 2.1zM894.8 313.3c-2.4.4-5.4 3.3-9.6 6.8-6.4 5.3-19.1 18.6-25.1 20l-.2.2c-.5 0-1 0-1.3-.1v-1.3-1.3c-5-2.1-.4-19.4 1.1-28.1.2-1.3.5-2.1.9-3.7-.3-.5-.7-.8-1.2-1.3.7-.1 1.3-.2 1.7-.5 1-3.8 2.2-7.9 3.2-11.4-.1-.3 0-.6.3-.9.4-1.4.8-2.6 1.1-3.6-.7-.2-1.5-.1-2.4 0-1.1-.7-.1-3-1.9-2.8-2.6.3-3.1-1.9-4.4-3.2-1.3-3.9-4.9-1.3-7.1-2.6-.8-.1-1.6-.1-2.3-.2 0-2.4-1.1-3.6-3.5-3.3-4.9 1.6-10.1-.1-14.8 1.5-2.9 1-7.1-.8-8.8 3.5-2.8.4-4.8 1.9-6.1 4.3-1.9 1-1.5 3.6-3.4 4.6-1 .8-1.9 1.7-1.9 3.1-3.7 2.3-4 7-6.9 9.8-1.2.9-1.8 2.1-1.6 3.7-.8 2.1-3.4 2.7-3.7 5.2-1.6 8.2-3.6 16.1-10.5 21.8-3.6 3-5.5 7.9-10.3 9.5-.2-1.3-.5-2.6-1.7-3.4-.3-.6-.6-1.1-.9-1.7-.9-2.4 1.6-2.4 2.4-3.6 1.9-.9-.3-2.2.2-3.2 3.8-2 5.5-6.8 4.5-9.2-2.3-5.5 1.1-10.2.4-15-.5-4.1 2.5-7.6.6-11.8-2.1-4.6-3.7-9.3-9.1-11.1-2.5-2.5-4.9-2.7-7.9-.6-7.6 5.3-15 11-20.9 18.3-.9 1.2-2 3.8-4.4 1.6-.3-2.3 1.9-6.1-3.3-5.5-.2-2.2-1.1-4.1-2.3-5.9-3.1-4.6-9-5.7-11.3-1.8-2.6 4.4-6.5 8-8.5 12.8-1.2 1.5-2.4 3-3.6 4.6-2.7 1.4-2.3 5.3-5.3 6.5-1.6-1.4-2-3.3-2.2-5.3 1.1-3.1-1.8-1.4-2.6-2.1-2.3-2.6.6-5.3 0-7.4-1.4-5.2-2.4-10.7-8-13.9-4.2-2.4-6.2-3-9.5.7-3.1 3.6-6.6 6.6-9.2 11.1-4.3 7.6-9.9 14.6-13.7 22.6-.4.6-.7 1.2-1.1 1.8-2.7 1.5-3.7 4.4-5.3 6.8-.6.9-1.3 2.4-2.4 2.2-1.6-.4-1.8-2-1.6-3.5 2.2-2.1.5-4.7.9-7 1.2-1.4 0-2.9.1-4.4 3.6.3.8-2.4 1.6-3.5 1.7-4.6 4.1-8.8 4.4-13.8 1.8-.9 1.5-2.7 1.7-4.3-.1.2-.2.3-.4.4.1-.2.3-.4.4-.6.9-2.5 3.2-5.2-.1-7.6-2.8-2-5.7-3.8-8.6-5.6-1.9-1.6-3.3-.5-4.5.9-2.4 3.8-4.6 7.8-6.2 12.1-.2.2-.5.4-.7.7-.8 1.7-1.4 3-1.9 3.8-.2.3-.4.6-.5.9-.3.6-.7 1.3-1.2 2.1-.5 1-.9 2.1-1 3.3-.2.2-.4.4-.5.6-.4.1-.7.2-1 .4-.6 1-1.2 2.1-1.9 3.2.1.6.4 1.2.2 1.8-1.5 1.2-2.8 2.5-3.7 4.2l-.3.3c-3 4.7-6.3 9.9-9.6 14.5-.1.4-.2.7-.4 1-.3.3 1 .7.7 1l1.7.3c-5.2-.1-1.6-.2-1.7-.3-.1 0-.9 0-1 .1-5.5 7.6-10.9 13.5-13.5 13.1-3.7-.5-3.1-7-1-13.9 0-.2 0-.4.1-.6.9-2.8 1.9-5.6 3-8.1.1-.7.2-1.4.4-2.1.2-.1.5-.2.7-.3.7-1.4 1.3-2.6 1.9-3.5v-.6c.1-.1.2-.3.2-.4.4-.6.8-1.1 1.2-1.7 2.3-4.2 5.7-11 8.8-17.5.6-2.1 1.3-4.1 2.7-5.8l.3-.3c1.5-3.1 2.7-5.7 3.6-7.6.3-2.3-.2-4.6-2-7.3-2.1-3.2-5-2.6-7.3-4-4.3-2.8-6.8-1-8.5 4.4-1.4 1.1-3 2.1-1.8 4.3-1.2 3.3-6.1 3.7-6.2 7.9-.7 2.1-4 .9-4.2 3.5-.9 1-1.1 2.1-.9 3.4-2.3 2.5-4.9 4.8-3.6 8.7-.2.3-.5.5-.7.8-1.2 0-1.5.9-1.7 1.8-.7.2-1.1.6-1.7 1.1-2.6 2.5-2.8 6.7-6.1 8.6-1.2 1.4-2.4 2.9-3.6 4.3-.2.5-.3.8-.2 1.2-.9 2.9-3.7 4.1-5.8 6-2.1 1.1-2 3.1-1.9 5.1-1 .1-1.5-1.5-1.7-.7-2.5.8-1.9 2.4-1.7 2.4-1 2.1-3.2 3.5-4.3 4.8-1.2 2.9-5.7 6.9-.2 9.9 1.9.9 3.2 4.2 6 2.4.8 3.8 2.6 2.7 4.8 1.9l10.7-12.8s.3.7.9 1.7c.8 0 1.4.1 1.4 1.5 0 .4 0 .8.1 1.1.4.6.7 1.2 1.2 1.8.9.7 2.1 1 3 1.6-.5.5-.8 1-.8 1.4 1.7 2.2 3.5 4.1 5.3 5.2.5.2 1.1.3 1.6.5 0 .1.1.2.1.4 5.3 2.5 12.9 3.7 18.1.8h.1c1.1-.8 2.4-1.5 2.8-3 .3-.3.6-.6.9-1 2.7-.7 3.5-4.4 5.3-6 .8-.6 1.6-2.8 2.4-2.8.9 0 1.8-1.1 2.7-2.1v.1c-.2-1.4 1.1-1.5 1.8-2.3.5-.2.9-.3 1.2-.5 2.3-2.8 3.9-4.7 3.9-4.7.7-.3 1.3-.6 2-.9 2.2 3.2 2.7 7.1 2.8 10.5 0 1.4.2 2.7.6 3.9.6 1.6 1.2 3.1 2 4.2.6.8 1.2 1.5 1.9 2.1 4.8 3 10.1 2.1 11-.8.3-1 .6-3.3.9-3.3.5-1 1-.3 1.4-.8 2.1-3.5 5.5-8.5 9-13.9v-.1c.2-.7.6-1 1.1-1.4 1.6-2.4 3.2-4.9 4.7-7.2-.2-.1-.3-.2-.5-.4.1-.5-.1-.9 0-1.4.2-.2.5-.4.5-.6 0 .1.9.2 1.3.2 2.4-3.7 4.6-6.9 6.1-9.1-.2-.9-.6-1.9-.2-2.8.7-.2 1.5-.1 2.2-.1l7.3-6.9c.6-1 1.3-.9 1.9-.6.5 0 .9.1.9.6-.3 6.8-.6 13.5-2.5 20.2-2.3 8.1-3.9 16.4-5.2 24.6-.5 3-.2 6.6 3.4 8.4 1.8 1.7 3.6 3.6 6.1 4.4h.3c.7-.4 1.3-.9 2-1.8 1.2-1.7 3.7-5.8 6.5-10.6 0-.6 0-1.1.1-1.7.5-.4 1.1-.8 1.6-1.2.7-1.3 1.5-2.6 2.2-3.9-.2-.6-.5-1.3-1.2-2.1-.6-.7.5-1.5 1-2.1.7.3 1.3.8 2 1 2.9-5.1 5.5-9.8 6.7-11.9.1-.2.1-.3.2-.5.1 0 .1-.1.2-.1l.3-.6c.1-.3 0-.7 0-1.1.2-.1.5 0 .7 0 2.5-3.8 10.7-16 11.3-15 .7 1.1 1.5 6.4-1 18.2v.1c-.7 4.3-1.6 8.6-2.7 12.9-1 5.2-1.7 9.5-1.2 12 .2.5.3 1.1.6 1.6.5.7 1 1.5 1.5 2.3.6.7 1.3 1.4 2.2 2v.9c1.5 1.7 3.2 2.6 5.2 1.2 1.4-1 3.6-6 6-12.2-.1-1-.2-2 .2-2.9.4.1.7.1.9.1.3-.7.5-1.5.8-2.2-.3-.5-.5-1-.2-1.4l.1-.1c.1-.2.2-.5.2-.7.3-.6.7-1.2 1-1.8.1 0 .2.1.3.2 1.7-4.7 3.2-9.3 4.5-12.8.1-.4.2-.9.3-1.3l.2-.2c.8-2.3 1.5-3.9 1.9-4.5 2.2-3.3 7.8-14.8 14.2-17.2 3.5-1.3 5.3-1.9 6.1-.8h.3c.6 2.3.1 4.5-.6 6.6-1.5 8.3-5.7 41.9-2.4 47.1 1.6 2.6 3.7 4.8 5.9 5.5.7 0 1.5 0 2.2.1v.1c1.6-.3 3.3-1.5 4.9-4.1 1.1-1.8 2.4-3.6 3.6-5.4-.3-.6-.4-1.2-.5-1.9l-.1-.2c.7-.3 1.3 0 2 .1 2.6-3.6 5.4-6.8 7.7-8.8v-.5c.4-.4.9-.8 1.3-1.1.3-.1.7-.1 1.2-.1 4.1-1.8 5.4 1.1 5.4 1.1l1.5.6c0 .5 0 1.1.1 1.6 1.4 1.8 3.5 4.4 5.9 6.9 2.9 1.2 4.7 4.1 7.7 5.4 1.1.5 2.1.8 3.1 1.1 1.7 0 3.4-.1 5.1-.2h.2c1.1-.1 2.1-.1 3-.2.6-.3 1-.8 1.1-1.5.2-3.3 2.4-3.2 4.4-3.6.6-.9 1.2-1.7 1.7-2.6 2-.3 4.4-.3 3.4-3.5 1.8-.6 2.8-1.9 3.5-3.6 2 .1 2.1-.8 1.3-2.4-.6-1.2.4-1.5 1.3-1.6 1.2-.2 2.4-.3 2 1.6-.5 2.9 2.3 4.4 3.3 6.6 1.6 3.2 4.9 5.7 7.6 8.4 1.5 1.5 4.1-.1 5.7 1.5 2.6.7 5.1.4 7.5-.9-.2-2.1 2.9-2.7 2.2-4.9.5-.4 1-.7 1.5-1.1.6-.5 1.3-1.1 1.9-1.6 1.5.1 3.6 1.1 3.4-1.8 1-1.6 3.1-.4 4.1-1.8 3.4-3.2 5.1-7.7 8-11.3.8-1.2 1.6-2.4 2.4-3.5.3-.1.4-.3.3-.6 1.4-1.3 2.8-2.7 4.2-4 .3-.8.6-1.5.9-2.3 1.5-2.6 1-5.2 0-7.8-.7-1.3-1.2-1.9-1.8-2.3zm-313.1 6.2c.1 0 .1 0 0 0 .1 0 .1 0 0 0 .1 0 .1 0 0 0 .1 0 .1 0 0 0zm14.3 14.8s0-.1 0 0c.1-.1.3-.1.4-.1-.1 0-.3 0-.4.1zm12.8 19.3c-.1-.1-.2-.2-.3-.4.2.1.3.3.5.4h-.2zm15.6-30.4zm9.8 3.4s-.1-.1 0 0c-.1-.1 0-.1 0 0 0-.1 0-.1 0 0zm52.2-27.2s.1 0 0 0c.1 0 0 0 0 0zm.1-.1zm0 0zm34 13.3l.1-.1h.1c-.1 0-.2.1-.2.1zm23.2-1.2c0-.1-.1-.1-.1-.2.1 0 .1.1.2.1l-.1.1zm103.4-20.5c-.4 6.2-25.2 56.1-35.2 53.4 0-.1-.1-.2-.1-.2-2-2.6-.3-5.4-.5-8.1-.2-.5-.3-.9-.5-1.3.4-.8.7-1.5 1.1-2.3.8-7.4 3.4-17.1 10.6-25.8l.1-.1c2-3.5 4.9-6.2 8-8.7 2.4-2.3 4.6-4.1 6.6-5.4l.3-.3c.2-.1.4-.3.6-.5h.3c4.9-3 7.9-2.9 8.8-1.3 0 .2-.1.4-.1.6z"/><g><path class="st1" d="M1137.1 251.6c0 .1.6.7.7.7.6.8 1.2.9 1.8 1.7 2.7 1.1 5.2 1.7 8.1-.3l.6-.3c1.7-.9 3-.7 4.3-2.8 1.8-1.3 1.6-2.7 2.4-5 .4-3.7.9-4.9-1.2-7.1-1.3-1.7-2.4-1.5-4-1.5-1.7-1.8-5.9-4.6-9 .7-2.3.7-2.4.1-3.7 3.5-.6 1.6-.4 1.1-1.1 2-1.5 1-1.7 1.6-1.6 4.2.4 3.2 1.9 2 2.7 4.2zm10.7-8.9zm1.2 6.1z"/><path d="M1246.1 342.4s-12.6 2.9-18.1-1.6c-.7-.7-1.8-1.3-1.8-2.2.3-3.7 2.4-7.3.9-11.2l.9-.6v-3.7c-.2-.3-.5-.6-.8-.9.3-.1.5-.1.8-.1-.1-1.4-.1-2.8-.3-4.1-.4-3.8-1.3-7.8-2.6-11.1-.1-.2-.3-.4-.4-.6-.2-.3-.3-1.8-.3-2.2-.5-1.2-1.1-4.2-1.7-4.2h-.1c-.1 0-.4.8-.6 1-.6-.4-1.8-.1-1.8-.5 0-.9-.2-1.3-.5-1.9-1.6-1.1-2.9-1.9-4.3-2.7-.2-.1-.4-.1-.6-.2-2-1.4-4.1-.7-6.3-.6-5.8.6-8.7 5.6-12.8 8.6-2.9 2.2-4.6 3.1-6.5-.7-.8-1.6-2-3.1-3.2-4.5-3-3.8-8.2-5-11.6-2.7-1.6.2-3.5-.2-4.2 1.9-6.6 2.9-11.1 8.6-16.7 12.9-1 .3-1.4 1-1.7 1.9h.1l-.1.1v-.1c-2.5.3-2.8 2.5-3.7 4.3-.7 0-1.4 0-1.6.9-.6.9-1.1 1.8-1.7 2.7-2.7 2.2-3.6 5.9-6.6 7.9-.5.4-1.4 1.5-.4 2.5-.4 1.4-1.4 1.7-2.7 1.7-.3-.3-.6-.6-.9-.8-.3-.6-.7-1.1-.4-1.8-.2-.9-.3-2-.5-3.3-.3-.1-.6-.1-.9-.2-.5-.3-.5-.6 0-.8h.8c-.1-1-.2-2.1-.2-3.1-.3-.3-.7-.5-1-.8.3-.2.7-.3 1-.4 0-.9.1-1.8.3-2.7-.3-.1-.5-.1-.7-.2.3-.2.9-.4 1.2-.7 1.3-5.6 2.5-19.4-.1-23.7-2.6-2.1-5.6-1.9-8.2 1-2.8 1.1-3.7 3.6-4.2 6.2-1 1.1-2 2.3-2.9 3.4-1.8-.1-1.8.9-2.5 1.9-1.7.6-1.5.8-2.9 2.8-2.6 0-2.9 5-4.9 6.8-2.9 1.7-5.3 4.4-7.7 6.6-3.4 2.5-5.8 6.2-9.6 8.1v-.9c0-.1.1-.1.1-.1.1-2.2.6-7.3 2.4-11.9 2.3-6.1 7.7-26.2 6.8-29.8-3.9-6.5-8.4-7.7-15.3-4.3-3.8.8-7.6 1.3-9.8 5-2.2-.1-3.6-.5-5 1-.2-.2-.5-.2-.7-.1-1.9-5.7-8-7.2-14.3-3.6-1.9.1-3 1.5-4.4 2.5-2.4.2-2.4 3-4.3 3.8-4 1.7-4 4.4-1.8 7.6-.6 1.8-1.2 3.7.1 5.4.3 1 1 1.4 1.8 1.7 1.2.8 2.3 1.6 3.5 2.4 1.1.1 2.2.3 3.3.4-4.6 6.4-8.9 12.9-13.8 19.1-4.1 5.2-8.8 9.8-13.2 14.7-1.7-.1-2.1 2.5-4.4 1.7 1.5-2.5.4-5.3 1.2-7.8-1.6-.9-4.1 1.7-5.2-.8 1.2-1.3 3.9-.2 3.9-2.5v-1h1.8l-.9.5-.9.5v-1h1v.8s-.3.2-.2.2c4.3-5.7 6.6-12.7 6.6-19.2 0 .2.1-1.5 0-1.3.1-.2.6-2.4.8-2.4h-.1v1.9c2.5-2.4 1.3-4.2.9-6.9 0-.3-.1-.1-.1-.4 0-.9-.1-1.5-.1-2.4.8-2.1-2-1.5-2.3-3-1.4-7.2-6.7-8.9-13-9.1-1-.8-2-1.6-2.9-2.5-3.9-1.8-7.5-1.9-10.5 1.7-1.1.5-1.9 2-3.4 1 .4-2.6 3.8-4.7 1.2-7.7 1.9-.1 1.6-1.9 1.2-2.5-1.9-3.3-3.6-6.8-7.5-8.2-6.4-4.3-8.1-4-10.6 1.6-2.3 3-3.9 6-6.2 9-1.5 1.7-3.8 4.2-3.8 5.2-2.1 1.5-4 2.9-4.2 5.3-1.8 1.1-3.1 2.8-4.6 4.2-3.7 3.6-5.1 8.7-8.1 12.6-4.1 5.3-7.7 11.1-12.8 15.6-1.2 1.1-1.6 1.9-.4 3.1-1.5.5-2.6 1.6-3.5 2.8-3.2 1.7-5.6 4.5-8 7.1-2.8 3.1-.7 8 3.6 8.7.6.3 1.3.6 1.9 1 5.6-3.6 15.6-10.2 19.2-14.1 1.3-1.4 3.3-4 5.5-7 0-.2 0-.4-.1-.7-.1.1-.3.1-.4.2.1-.1.2-.2.4-.2.3-.2.7-.4 1-.6 4-5.4 8.7-12 12-16.3 0-.2 0-.4-.1-.7.7-.7 1.3-1.4 2.1-1.9 1.1-1.4 1.9-2.2 2.1-2 1.1.6 2.2 4.8-1.3 12.2-.8 1.7-2.5 5.8-4.7 11.1-1 3.3-2.2 6.6-3.7 9.7-.3.7-.6 1.4-1 2-3.8 9.6-8 20.7-11.4 30.3-1 2.8-2 5.7-3 8.5-.3.9-.6 1.8-.9 2.6l-.6 1.8-1.8 6c0 .2-.1.3-.1.5-1.6 5.9-3.1 11.9-4.7 17.9-3.9 14.1-8.2 28.2-11.1 42.6-1.1 5.5-2.1 10.9-3.2 16.4-.7 3.8 2.6 5.6 6.1 6.2 2.6 1.5 4.2.7 9.4.1 2.1.1.3-1.8.4-3.1.1-1.2-.9-2.3-.3-3.6 1.8-4 2.5-8.2 2.5-12.6.6-1.4 1.2-2.9-1-3.7 3.6-4.5 1.3-10.8 4.8-15.4.9-1.2-2-2.7-.8-4.6 2.6-4.1 3.1-9.1 6-13.1 2-1 .6-3.2 1.6-4.5-.6-.4-1.1-.1-1.5.3-1.5-2.3 1.4-2.6 2-4 1-2.6-.5-2.1-1.8-2.2 0-.4-.2-1.1 0-1.2 3.9-1.8 4.3-3.2 1.6-6.6.6-.6 1.1-1.2 1.7-1.8 2-1.1 2.7-2.9 2.4-5.1.3-.1.4-.3.3-.6 1.7-1.8 1.9-4 1.7-6.4 2-3.5 3.7-7.2 3.4-11.4.1-.3.1-.5.2-.8 5.2-4.7 4.8-11.8 7.7-17.5 1.3-.8 1.2-2 .9-3.2 1.2-.1 2.3-.1 2.6-1.6.5-2.5 1.1-4.9 1.6-7.4.2-.2.2-.4.1-.6 2.2-1.1 2.5-3.4 3.5-5.3.9-2.6 1.7-5.2 2.6-7.8.5-1.5.8-2.9 3.1-2.5.2 0 .5.1.7.1 2-1.9 4.9-4.8 6.8-6.9 0-.3 0-.6-.1-1 .5-.2.9-.4 1.3-.7.2-.4.6-.9 1-1.6v-.6c.3-.3.6-.6 1-.9-.1-.3-.2-.6-.2-.8.2.2.3.5.2.8 1.7-2.6 4-6.1 6.2-8.9.9-1.4 1.9-2.7 3.1-3.8.8-.9 1.5-1.4 1.9-1.4.4-.2.7-.4 1.1-.6.6.1 1 .3 1.3.6.3.2.5.7.6 1.5.1.4.2.9.5 1.2-.4.8-.7 1.7-.9 2.6-.1.4-.2.9-.3 1.4-.4 2.1-.5 4.3-1.3 6.4-.2.3-.2.6-.3.8-.2.5-.4 1.1-.5 1.6-2.2 8.6-4.9 18.9-4.8 21.1.5.5 1.3.9.3 1.6 1 4 4.8 12 8.9 16.1.3 0 .6-.1.9-.2.3.3.6.6.9 1 .2.5.5.9.8 1.3 5.5 2.8 9.7-1.2 14.8-5.7.1-.1.2-.2.4-.3 3.8-3.3 13.5-15.7 20.1-24.5-.1-.2-.2-.3-.3-.5-.2-.4.5-.5 1.1-.6 2.2-3 3.9-5.4 4.8-6.9 3.1-5 7.6-11.9 8.8-13.8.1-.2.3-.3.3-.5s.5-.9.9-.9c1.6-.8 4.9-4.7 8-4.7.1-2.1.2-.4.4-.8.4.2.9.6 1.3.6 3.2-1.7 5-2.2 5-1.4v3.7c0 .6-1.6 1.2-1.8 1.9-1.3 4.2-3.3 8-5.5 11.8-1.4 3-2.9 6.1-4.4 8.7-5.4 9.9-7.3 21.6-7 25.9.1 1.9.9 3.5 2.1 4.7.1.1.3.2.4.3 1.5.7 3 1.3 4.5 2 .6.1.8.1 1.4 0 1.4-.1 2.9-1.2 5-2.6v-.1l.3-.1h.6c1.9-1.3 3.9-3 5.7-4.7 0-.6.4-.8.9-.8 2.1-2 3.9-3.8 5-5.1 0-.3.1-.6.1-.8.1-.2.2-.5.2-.8.7-.3 1.3-.5 2-.6 3.9-3.2 12.9-9 17.5-12.4-.1-.1-.2-.1-.3-.2-.7-.5.6-1 .9-1.5.3.3.6.5.9.6.4-.3.8-.6 1-.9l2.7-2.6s2.4-2.8 2.5 1c.1 3 1.8 13.6 5 21.2.3.3.5.6.4 1 .8 1.8 1.7 3.3 2.7 4.5 5.2 6.3 10.5 7.7 14 1.1.4-.8.9-1.8 1.5-2.8.2-.8.3-1.5.4-2.3.8-.8 1.6-1.5 2.4-2.3.1-.2.2-.3.3-.5-.3-.2-.7-.4-1.3-.5.4 0 .9.1 1.3.5 2.5-4.2 5.5-9 8.1-13.1-.1-.2-.2-.5-.3-.7.6-1.1.3-3.3 2.3-2.5 1.2-2 2.3-3.6 3-4.7 2.7-4.3 6.5-6.8 8.6-7.4 0 0 0-.1.1-.1.2 0 .4-.7.6-.7.2 0 .5-.6.6-.6 2.4 0 2.8 2.1 1.7 4.3-.3 1.1-.8 2.9-1.7 4.9-3.5 7.8-8.9 28.8-7.7 32 1.9 4 7.4 6.3 12.6 4.3 2.1.1 2-.7 1.8-2.6-.3-4.7 1.2-9.2 5.1-11.7.2-.1.4-.2.5-.4.9-2 2-4.2 3.2-6.6.1-.2.1-.3.2-.4 3.4-6.8 7.5-14.2 11.2-18.1 7.8-8.1 14.2-12.5 14.8-11.8.6.7 2.3 2.2 2.2 4.9-.1 1.1-.3 5.2-.5 10 2 2.3.3 3.6.1 5.6-.1.6-.1 1.2-.2 1.9.1 5.3.5 10.2 1.7 11.9.6.8 1.1 1.5 1.7 2.1.5.3 1.2.5 1.9.6.1.1.3.2.4.3-.2.3-.3.6-.3.9.8.6 1.6 1.1 2.4 1.4 1.1.3 2.3.7 3.4.8 4.8 2.2 10.8 3.5 15.9.7 11.6-6.4 5-8.5 5-8.5zm-111.9-31.1c0 .1-.1.2-.1.2-.1-.2 0-.2.1-.2zm-112.1-7.5zm-67.9 26c-.1-.1-.1-.2-.2-.3v-.1c.1.2.2.3.2.4zm79 15.5c0 .1.1.2.2.3l-.2-.2v-.1zm.2.4s-.1 0 0 0c-.1-.1 0-.1 0-.1v.1zm21.5-59.2c.1-.1.1-.2.2-.3 0 .1-.1.2-.2.3zm20.4 65.2s0-.1.1-.1c0 0 0 .1.1.1h-.2zm7.8-19.8c-.1-.1-.2-.1-.2-.2h.2v.2zm68.9-19.4zm27 20.1zm3.2 7.7c-.4-.2-.9-.4-1.3-.7.7 0 1.3-.2 1.9-.3-.3.3-.4.7-.6 1zm.7-19.6c0-.2-.1-.3-.1-.5.2.1.4.1.6.2-.1 0-.3.1-.5.3zm3 13.7c0-.1 0-.1 0 0 .1-.1.1-.1 0 0 .1-.1.1-.1 0 0zm10.5-10.9c-.1-.1-.1-.1 0 0l-.1-.1c.1 0 .1-.1.1-.1v.2z"/><path class="st1" d="M1465.5 356.4c-.9 2-.1 3.5 1.9 3.9 1.5.3 2.3.4 3.7.6.9 1.6 2.2.7 3.6.7l.1 1.2c.9.1 5.8 1 9.9-1.3-.1-.2-.2-.1-.4-.3.8-.4 1.6-.7 1.6-1.8.6.1 1.2.3 1.7.3 3.9-3.6 11.3-11 14.8-14.5V344c.6-.3 1.9-.5 1.9-.8 0 0 6.2-7.3 5.6-12.3-.6-5-7.3 0-7.3 0s-20.5 17.8-25.7 20.7c-4.1 2.3-5.3-4.5-5.6-9h-.2c-.1 0-.1.2-.2.4-2.5-.5-2.1-1.8-.6-2.9.3-.2.6-.4.8-.6 0-1.5.8-4.7 1.6-7.5 0-.1-.1-.1-.1-.2-.3-.1-.5-.1-.8-.2 2-3.5 2.4-7.4 2.6-11.3-.4-2.1.7-4 1.3-5.9.9-1.4 1-2.7-.2-3.9.2-.2.2-.3 0-.5 1.4-.9 1-2.3.7-3.5 1.1-1.3 1-2.5-.2-3.6-.5-.5-.9-1.1-.9-1.7.2-.2.4-.5.5-.8 4.4-1.4 1.2-2.2.1-3.1-.1-.2-.2-.5-.3-.8.5-1.6.1-2.8-1.6-3.3-.2-1.7-.8-3-2.9-2.6-.5-.2-.9-.5-1.4-.8-.4-.2-.8-.5-1.2-.8-2.8 0-6 .4-9 .8-.9 1.6-1.1 4.1-4.1 3.3l-.2-.2-.2.1c-2.8-1.2-5.6-1-8.4.1l-.3-.2-.3.2c-.6-.4-1.2-.7-1.8-1.1-3.3.7-7.9 2.1-11.7 3.7-.5.7-1.1.8-1.9.8-1.5.7-2.8 1.4-3.8 2.1-4.1 3.1-15.1 16.4-15.1 16.4l-7.7 3.8-7.6 3.6c-.1.1-.3.2-.4.3-.5.4-1.1.6-1.7.7l-2.6 1.2-.1.1h-.3l-2.2 1s-.1-.9-.3-1.9c-.6-.6-1-1.4-1.6-2 1.3-1.7 2.4-3.2.7-5.5-.8-1.1-.5-3.3-.2-4.8s.6-1.4-1.4-1.9c.3-.5.6-1.1.9-1.6 2.8-.6-.5-2.4.7-3.5 2-2 1.1-3.7-.7-5.3-1.5-3.2-2.9-6.4-6.9-7.2-4-2.2-6 1.1-6.8 3.6-1.4 4.8-4.2 8.6-6.5 12.8-.7 1.3-1.5 2.5-2.2 3.8-3.6 6.7-9 11.9-14.3 17.2-.6.6-1.2 1.3-1.8 1.9l-.8.8c-.6.6-1.1 1.2-1.7 1.8-2.1.2-.2 1.9-1 2.7-1.7-.5-3.2-.2-4.2 1.3-3.7 5.6-10 8.2-14.8 12.5-3.3 3-7.6 4.9-11.4 7.3-.5-.1-1.1-.2-1.6-.3-1.9-1.3-.3-3.7-1.7-5.2l-1-1c.1-.3.1-.5-.2-.6.5-4.1 1.4-8 6-9.5 1-.3 2-.5 1.8-1.9.7-.5 1.3-1 2-1.5.5-.6 1.2-.9 2-1.2 2.5-2.6 5.5-5.7 8.5-8.9 0-.2 0-.4-.1-.6l-.3-.3h.1l.3.3c.3-.1.6-.2.8-.2.5-.5 1-1.1 1.5-1.6.1-.4.2-.8.3-1.3.1-.5.9-1.2 1.1-1.1.2.1.4.1.6.2 1-1.2 2-2.3 2.8-3.4 0-.4 0-.8.1-1.2.4-.3.9-.5 1.4-.8.4-.5.7-.9 1-1.4 0-.2 0-.4-.1-.6.5-.6 1-1.2 1.6-1.8.4-.8.7-1.6 1.1-2.4 2.2-3.1 4.6-6.2.9-9.8.3-2.3-2.1-3.3-2.6-5.2-4.7-7.6-8.1-8.3-16.1-6.1-2.9.8-4.6 3.3-6.8 5.1-1.3.5-2.2 1.4-2.7 2.7-2.6 2.9-6.2 5-7.8 8.9-4.1 5.3-5.1 11.8-6.9 18-1.3 2.8-1 5.9-1.7 8.8-.5 2.3-2 3.6-4.1 4.9-2.5 1.5-5.5 2.2-7.2 4.9-4.1 2-8.1 3.7-12.2 5.7-2.6.7-5.5-1.6-8 .5-.8 0-1.6.5-2.4.6-.5-.1-.9.1-1.4.1-.8.1-1.6.4-2.2.5-.3.1-.6.3-.8.5-.5 0-.9 0-1.4-.1-1.1.2-2.7-.9-4.1-2.5h-.5c0-.3-.1-.6-.2-.8-.1-.2-.3-.3-.4-.5-.3-.2-.6-.4-1.1-.4l.3-.9c-.5-.9-.9-1.8-1.1-2.7-.7-3.1-.5-10.2.4-13.8-.1 0-.2-.1-.4-.1.2-.1.3-.2.5-.3.1-.4.2-.7.4-1 .7-1.4 3.2-5 5.6-8.1.8-1.5 1-3.4 2.7-4.4.8-1.6 1.6-3.2 2.6-4.8 3.2-5.3 6-9.3 8.3-11.8 0-.1 0-.2-.1-.3v-1.5h2c2.6-2.1 4.6-2 6.1.4.2.3.4.7.6 1.2v.9c-.1.1-.1.2-.2.3-.2 1.8-1.1 4.2-2.3 6.9.1.5.1.9.3 1.4.1-.1.2-.1.4-.2-.1.1-.2.1-.4.2l-.3-.1-.1.3c-.8.8-1.5 1.7-2.1 2.7-.5.9-1 1.9-1.6 2.8-.9 1.7-1.6 3.3-2.5 5-.3 0-.5 0-.7.2-2.4 3.7-4.5 6.6-5.3 7.6.1.3.1.6-.1.9-.3.1-.5.2-.8.2-1.6 2.5-1.9 4.2-1.7 5.2.3.1.7.2 1 .3 1.5-.1 4.6-1.3 7.6-3.5-.2-.4-.2-.8.1-1.3.8-.3 1.6-.6 2.5-1 2.1-2.1 5.8-5.3 9.4-8.9-1.7-.3-.2-1.3.3-2.1.6-.1.9-.1 1.5-.2 2.1-2.3 4.8-4.7 4.8-7h.3c.7-1.4 1.3-2.7 1.4-4 .1-1.7.3-3.6.3-5.4l-2.4-.3c0-.6.1-1.1.1-1.7.8-.2 1.6 0 2.3-.2 0-1.7-.1-3.4-.3-5-.2-.1-.4-.1-.5-.2-.7-.3-2-.4-.7-1.5.4-.3.6-.6.8-.9-.4-2-.9-3.6-1.7-4.5-1.5-2.1-4.1-1.7-6.1-2.7-4.5-1.9-9-2.8-13.1 1-3.6.3-6 2.4-8 5.2-.7 0-1.3.2-1.6.9-2.4 1.3-6.4.5-6.2 5.1 0 .9-1 .9-1.7.9-2-.1-1.5 1.7-2 2.7-2.1.7-.9 3.3-2.4 4.4-.5.2-1.2.2-1.6.5-4.2 4.3-5 10.3-8 15.3-1.2.6-1 1.6-.8 2.6-.1.5-.1 1.1-.2 1.6-3.1 1.2-.5 4.4-2.1 6.2-.4 1.5-.9 2.9-1.3 4.4-.9 2.1-1.4 4.1-.3 6.1 0 .3.2.5.5.7 2.2 5.2 5.1 9.7 10.3 12.5.8 1.4 1.9 2.4 3.6 2.5 1.3 2.5 3.6 3 6.1 3.2 2 1.6 4.9.2 6.8 2.1 3.8 2.4 8.1 1.8 12.3 1.9 2.4.3 4.6-1.8 7.1-1 1.5.1 3.2.3 3.7-1.8 2.2-1.2 4.5-2.5 6.7-3.7 1.6 0 1.6-1.1 1.6-2.2 2.6-3.1 3.3.5 4.8 1.4.2 0 .4 0 .6.1 0 1.7.1 3.4 1.6 4.6 2.5 4.6 6.7 6.4 11.5 7.6.2.2.4.3.7.5 2.2-.4 6.1-1.1 9.2-2.4.2-.2.5-.4.7-.6h.4l.4-.1c1.4-.8 5.1-3.5 9.7-7-.4-.6-.8-1.2-.3-1.7.3-.3.7-.6 1-1h2.6c9.4-7.6 21-17.5 25.4-22.7 0-.2-.1-.5-.1-.7.3-.1.6-.2 1-.3.6-.7 1.3-1.5 1.9-2.1h-.3c.1-1.2.9-1.5 1.7-1.6 1.5-1.6 2.9-3.1 4.1-4.2-.2-.2-.3-.5-.3-.9.4-.4 1-.3 1.5-.3 2-1.9 3.2-2.9 3.2-2.9s1.6 2.3 2.1 4.2c.1.6.3 2 .5 3.6l.3.3c0 .5-.1 1-.2 1.5.1.9.5 1.8.6 2.6.5 1.1.6 2.1.6 3 0 1.2-1.5 2.3-2.6 3.3-.6 1-1.5 1.9-2.1 2.9-.8 1.3-1.7 2.8-2.5 4.3-1.5 3.7-2.6 7.6-.1 11.5.1 1.8.9 3.2 2.4 4.2.5 1.8.5 3.9 2.9 4.4.9 1.3 3.1 1.2 3.3 3.2.2.5.4.9.6 1.3 3.6 2.1 7.3 2.3 9.8-2.8 2.5-5.1 3.9-9 4.8-11.8-.3-3.1-1.9-6-1-9.2.3-.6.4-1.2-.2-1.7 1-2.7-2.2-3.2-2.9-5.2l4.6-2.2c0-.2.2-.4.4-.7.1 0 .1 0 .1-.1.3-.1.7-.1 1.1 0l6.1-2.9c.2-.1.3-.2.5-.3l4.8-2.6s1.8-.8 1.2 3.8l-.3 1.2.2.2c-.4.8-.4 1.6 0 2.4-3.6 4.4-1.5 9.3-1.4 14 .8 2-1 4.6 1.6 6.1.1.9.8 1 1.5 1 2.3 1.4 4.7 2.6 6.5 4.8 1.3 1.7 3.4 2.4 5.6 2.2 2.1 1.2 3.8-.1 5.5-1 .6-.3 1.1-.7 1.7-1.1.7-1.8 2.7-1.4 3.9-2.3 2.5-1.3 5.8-.7 7.5-3.7 1.3-.8 2.2-1.9 2.8-3.2 2.2-.4 1.3-2.3 1.7-3.6.3-.3.6-.6 1-.8 1.8-1.1 1.7-2.9 1.5-4.6.6-1 2.3-.4 2.5-1.8 0-1.9 2.1-1.3 2.8-2.4 1.1-.7 2.1-.2 3.2 0 .7 1.2-.2 2.7 1 3.8-.3 1.2-.3 2.4.8 3.3.3.6.6 1.1 1 1.7 0 .9-.3 2 .6 2.7 1.8.9 2.1 3.8 4.7 2.8zm10.2 2.5h-.5c.1 0 .3.1.5 0zm-9.8-2.6c-.1 0-.1-.1-.2-.1.1.1.1.1.2.1zm-124.6-59.6c.1.4 0 .6-.1.9 0-.3 0-.6.1-.9zm-24.4 19.7c.4-1.9 13.7-19.6 14.1-10.6.2 4.9-3.9 9.5-7.7 12.8-.1.2-.3.4-.4.7h-.3c-3 2.5-5.6 4-5.6 4l-1.2-.6s.7-4.4 1.1-6.3zm67.7 45.5c-1.6.3-8.6-6.2-7.7-10.2.9-3.9 5.5-7.3 5.5-7.3s3.8 17.2 2.2 17.5zm27.3-32.7c0-.1 0-.1 0 0 0-.1 0-.1 0 0 0-.1 0-.1 0 0zm.8-4.5v-.1c.1 0 .2.1.2.1h-.2zm35-31.2h.6c-.2.3-.4.4-.6.5 0-.1-.1-.3 0-.5zm-4.5 5.5c-.1.1-.1.1 0 0-.1.1-.1 0 0 0zm-16.6 13.5s0-.1.1-.1l-.1.1c.1 0 .1 0 0 0 0 0 0 .1 0 0zm-3.4 27s-.1 0 0 0c-.1 0-.1 0 0 0-.1 0 0 0 0 0zm21.9 15.9l-.1-.2.1.2zm4.5-40.2c-2.5 8.2-10.6 19-17.2 26.1-.2.5-.4 1.1-.5 1.7-1.4.9-2.6 2-3.5 3.4-.6.1-1.2.2-1.7.4-.3.2-.5.4-.8.6-.1.1-.2.3-.3.5-.2.1-.4.1-.5.1-.7.4-1.2.6-1.5.6-2.9-.4 2.6-25.6 8.3-33.6.4-.5.8-1 1.2-1.4-.1 0-.1-.1-.2-.1.1 0 .2-.5.2-.8 0-.2 0-.4-.1-.5.5-.5 1.2-.5 2-.5 6.6-5.4 17-7.3 17-7.3s1.7-2.5-2.4 10.8zm6.4-18.4c.1-.1.1-.1.2-.1v.1h-.2zm.3 0z"/></g><g><path class="st1" d="M903.9 66.5c.5 3.4 1.1 6.8 1.6 10.2-.5 1.7-1 3.5-1.6 5.7-.6.4-1.6 1.1-3.8 2.5 2.7 1.2 4.6 1.9 6.4 2.7.5.7 1.3 1.4 1.3 2.1-.1 3-.5 6-.8 9-1.2-.4-2.4-.8-3.7-1.2-1.7 3.7 1.4 3.9 3.4 4.6 0 8.5 0 8.5 3.4 10 .1.1.2.1.4.2-2.9 4.9.7 9 1.4 13.5.5 3.2.2 6.5.2 9.7-.3.3-.7.6-1 .9h-.8c-.2-.7-.5-1.4-.7-2.1-.4.1-.7.3-1.1.4.6 1.4 1.2 2.7 1.8 4.1h1.8c.5 2.9 1 5.7 1.4 8.6-4.2-2-5.3-1.6-8.8 3.1-1.9.8-3.8 1.7-5.7 2.5.1.3.2.6.3 1 1.3.2 2.6.5 3.9.7v2.3c.3 1.3.5 2.6.8 3.9 0 .8 0 1.5-.1 2.2v.3l-2.4 1.5c1.1.4 2.1.8 3.2 1.1 1.1.4 2.2.7 3.2 1.1-.6.8-1.2 1.5-1.7 2.3-1.5 1.8-3.1 3.1-5.8 2.4-.5-.1-1.4 1-2.1 1.5-2.3-.7-4.6-1.4-6.9-2-2-.5-3.9-.9-6.7-1.4.9 2 1.1 2.6 1.3 2.9-2 .7-3.9 1.4-5.7 2.1h-.8c-4.6-2.1-9.3-3.2-14.1-.9-1.8 0-3.7 0-5.5.1-2-.3-4-.6-6.1-1-.1-.5-.3-1.2-.7-2.4-2.2 1.1-4.1 2-6 2.9-1.2-.6-2.5-1.3-3.7-1.8-1.2 1.6-2.1 2.9-3.1 4.1-2.3.3-4.7.5-7 .8-2-.7-3.9-1.5-5.9-2.2-.7-.2-1.6-.2-2.4-.1-1.8.4-3.6 1-5.4 1.5-.2 0-.4 0-.6-.2.5-1 1.1-2 1.6-2.9-.7-.1-1.5-.3-2.1-.1-4.1 1-8.1 2.1-12.2 3.1-5.4.1-10.7.1-16.1.2-4.9.1-9.7.4-14.6.3-3.3-.1-6.7-.8-10-1.2-2.9-.3-6-1.2-8.8-.8-8.7 1.1-17.1-1.7-25.6-1.9-5.8-.1-11.7-.7-17.5-.7-8.3-.1-16.6 0-24.8 0-2.4 0-4.9.2-7.3.1-1.2-.1-2.3-.6-3.7-1-4.9 3.4-11.1 2.2-16.9 2.8-3.1.3-6.2.3-9.3.5-5.6.3-11.3.7-16.9.8-1.9.1-3.9-.2-5.8-.6-7.6-2-15.4-3.5-22.8-6.3-5.4-2-6.3-10.1-3-12.6-.4-9.8-.6-18.8-1.1-27.9-.4-8.4-1.3-16.8-1.6-25.2-.2-5.8.3-11.7.2-17.5-.1-6.1-.7-12.2-.9-18.3-.3-6.3-.3-12.7-.7-19-.4-5.4-1.5-10.7-2-16.1-.3-2.8.3-5.7 0-8.5-.6-6.7-1.4-13.3-2.3-20.5h4.9c2.7 3 6 2.4 9.3 1.6 4.6 1 9.1 1.9 13.7 2.9 1.6 2 3 4.1 4.7 6 2.3 2.7 4.8 5.2 7.2 7.8l11.4 12c.7.8 1.3 1.9 2.2 2.2 5.2 2.1 7.5 6.9 10.6 10.9 2.9 3.7 6.2 7.1 9.5 10.4 2.2 2.2 4.4 4 4.7 7.6.1 2 2.5 3.9 3.8 5.9.4 1.5.7 3 1.2 4.4.6 1.6 1.5 3.2 2.3 4.8-.3.2-.7.4-1 .6h3.5c.8.8 1.7 1.5 2.5 2.3l.8.8c0 .3.1.5.1.8.2.2.5.4.7.7h.8c.3 0 .6.1.9.1.9 1.4 1.6 2.9 2.7 4.1 1.9 2.3 3.5 1.9 4.4-1 .8-.3 1.6-.5 2.4-.8 0-.2 0-.5.1-.7.2-.5.5-1.1.7-1.6v-1.5l.8-.8h2.3v.8c.5 1 1.1 2.1 1.6 3.1.5-.3 1-.5 1.6-.8.3 0 .6.1.8.1.4 5.9-3.2 9.7-7.1 13.3-1.4.1-2.7.3-4.2.4v3.3c-2.3 0-4.5.1-6.6 0-1.9-.1-3.8-.5-5.8-.7 0-1 .1-2 .1-2.6-2.4-.7-4.5-1.3-6.6-2-1.3 1.1-2.6 2.1-3.8 3.1-2.6-2.1-5.2-4.3-7.7-6.4l.4-2.2c-1.6-1.8-2.6-3.1-3.7-4.2-1-1-2.1-1.9-3.1-2.9l-6.9-9.6c-1-1.3-2.2-2.5-3.3-3.8.3-1.7.7-3.3 1.1-5.3-2 .2-3.6.4-5.1.6-.9-.9-1.8-1.7-2.7-2.6-3.7-3.9-7.5-7.8-12-12.6v32.4c-.2.7-.6 1.4-.6 2.2-.6 5.5-1.2 11.1-1.8 16.6-2.3.7-3.1 2.1-2.1 4.4 1.5 3.5 3 7.1 4.5 10.6.2 5 .5 9.9.7 14.9-2 1.4-4.9 2.2-3.1 5.6-2.2 3.8-1.5 9.4 1.6 11.7-.6 1.7-1.2 3.3-1.6 5-.2.9-.1 2.1.3 2.9.3.6 1.5 1 2.2.9 2.8-.5 5.6-1.2 8.4-1.8 4.7-1.4 9.4-1.5 14.2-.8 4.5.5 9 1 13.4 1.5 3.2-.8 6.3-1.8 9.6-2.3 4-.5 8-.6 12-.8 2.1-.1 4.2-.2 6.3-.1 4 .2 7.9.4 11.9.7 3.8.3 7.6.7 11.4 1.2 1.8.2 3.6 1 5.4 1.1 1.9.1 3.9-.3 5.9-.4 4.9-.1 9.8 3.3 14.8.1.4-.2 1.2.3 1.9.4 1.2.7 2.4 2 3.5 1.9 2.3-.2 4.5-1.2 6.8-1.8l3.9-.9c2 3.9 5.6 2.1 8.6 2.3 1 .2 2.1.9 2.8.6 2.4-1.1 4.7-2.5 7-3.7 2 .8 4.1 1.5 6.1 2.3.2.1.5.1.7.2 1.3-.1 2.6-.2 3.9-.2 3.3 2.6 7 3 11 2.2l9.6-2.1c2-.2 4.1-.4 6.1-.7 4.4.5 8.8.7 13.1 1.7 2.7.6 4.5.9 5.2-1.8h8.3c1.6.1 3.2.2 4.8.2 2.1 3.2 3.7-.3 5.6-.5 4.5-.4 9-1.3 13.5-2.1h3c.1.3.3.6.4.9.4-.3.7-.5 1.1-.8.2-.1.5-.2.8-.2 0 .3.1.6.1.9 3.1.5 6.2 1 9.3 1.4 2.1.4 4 .4 4.8-2.1 2.2-.8 3.7-1.3 2.8-4.7-1.2-4.2-1.6-8.8.5-13.3.8-1.6.4-3.8.2-5.7-.9-7.3-2-14.6-3-21.9-.9-6.4-2.2-12.7-3-19.2-.7-6.2-.8-12.4-1.5-18.6-.7-6.6-1.7-13.3-2.8-19.8-.9-5.2-2.3-10.3-3.6-15.5-.1-.4-1.4-.6-2.2-.8-.5 0-1.1 0-1.6-.1v-.8-.8-1.6h-2.4v.8l-.8.8-.8.8h-1.6c-1.3.8-2.7 1.6-4 2.4-.2.3-.5.6-.7.9 0 .2 0 .4.1.6.3.6.6 1.1.9 1.7.7.2 1.4.4 2.2.6.6-.5 1.1-1 1.7-1.5.5-.5 1-1 1.6-1.5.3 0 .5 0 .8-.1.3.3.5.6.8.8-.7 1.9-1.4 3.7-2.2 5.6-2.6 2.6-5.3 5.2-7.9 7.8-.6 0-1.2 0-1.7-.1v-3.2c-.3-.8-.5-1.5-.8-2.3h-.8c-.5-.3-1-.6-1.6-.8v-.8c-1.6-.6-3.1-1.1-4.7-1.7-.8-.2-1.6-.4-2.4-.7.2-1.1.5-2.2.7-3.3 0-.5 0-1 .1-1.5 1.3-.3 2.6-.5 3.9-.8v-1.5-.8c3.4-1.9 4.6-4.2 1.5-7.4-.3-.3-.5-.9-.7-1.3l3.3-4.5c3.8.6 4.6-1.8 4.9-4.8.1-.8.3-1.7.5-2.5 2.1-1.6 4.2-3.1 6.3-4.7.6-1.3 1.3-2.7 1.9-4 2.5-2.4 5.8-1.7 9.2-.6 4.7 2 9.5 4 14.2 6.1 2.7 2.6 2.8 5.5 1.4 8 3.8 3.2 5.7 6.8 5.8 11.4-.9 1.7-1.9 3.3-2.9 5.1.9.6 1.4 1.1 2 1.2 3.8.8 4.8 2.6 3.2 6.4-.8 1.9 0 4.4-.2 6.6-.1 1.3-.9 2.6-1.4 3.9 1.7 1.4 2.7 2.7 1.3 5-.5.9 0 3.5.1 3.6 3.2.3 1.6 3.7 3 5z"/><path class="st1" d="M755.5 13.8c1 1.9 1.9 3.8 2.9 5.7.5.8 1 1.9 1.8 2.3 5 2.4 7.7 6.4 8 12.1 4.2.6 5.7 3.9 7.7 7.2 1.8 2.9 4.8 5 7.2 7.5 1.1 1.2 2 2.5 3.1 3.7-1.7 2.3.7 2.4 1.7 3.3 1.9 1.7 3.7 3.4 5.5 5.1 2 1.9 4 3.9 6 5.8 2.4 3.7 4.9 7.4 7.2 11.3 1.5 2.6 3.3 2.2 5.4 1.1.4-.1.8-.3 1.2-.4-.3-.2-.7-.3-1-.5.5-1.1 1-2.4 1.7-3.4.8-1.3 1.8-2.4 2.7-3.6 3-.2 5.9-.5 8.9-.7-.2-4.1-3.7-3.2-6.1-3.9.7-1.3 1.3-2.8 2.2-4 2.3-3 4.7-5.8 7-8.7 1.9.8 3.7 1.6 5.6 2.4h.8c.8 0 1.5.1 2.3.1 0 .3 0 .6.1.8.2.8.5 1.5.7 2.3v1.5c.3.8.6 1.5.9 2.3.2.2.4.5.7.7-2.6 3-2.8 6.1.1 9-2.6.5-4.9.9-7.2 1.3-.8.3-1.6.5-2.3.8h-.8c-.6.3-1.1.5-1.7.8-.6-.2-1.1-.4-1.7-.6 0 .2-.1.4-.1.5h1.8c.3.5.6 1 .8 1.5l-.8.8c-.2.3-.5.5-.7.8v.8l-1.5 2.4c-.3.5-.5 1-.8 1.6-2 .8-4 1.5-5.8 2.4-.8.4-1.4 1.5-2 2.3-.5.8-1.1 1.6-1.6 2.3-.2.5-.5 1-.7 1.5 1 .8 2.1 1.6 3.1 2.4h.7c.8-.8 1.6-1.5 2.4-2.3.2 0 .5-.1.7-.1 1.6-2.4 3.2-4.7 4.7-7.1.5.5 1.1 1 1.7 1.5.5-.2 1.1-.4 1.6-.6.2 0 .5 0 .7-.1-.3 2.9-.6 5.7-.8 8.6-.8 1-1.5 2.7-2.3 2.8-4.4.2-3.4 2.6-2.4 5.1-1.8.8-3.6 2.3-5.4 2.3-4.9.1-9.9 0-14.6-1-3-.6-6.1-2.5-8.3-4.7-4.9-4.9-7.8-11.3-12.9-16.3-3.9-3.8-6.4-9.1-9.9-13.4-5.2-6.4-10.7-12.6-16.2-18.8-6-6.9-12.2-13.6-18.3-20.5-.8-1-1.7-1.9-2.4-2.9-2-3-3.4-2.3-4.5.6-2.4-1-4.8-2.1-7.2-3.1-.2 0-.4-.1-.6-.1-.3-.5-.6-1-.9-1.6 0-.2-.1-.5-.1-.7l-.8-.8c-.3-.2-.5-.5-.8-.7-.3 0-.5-.1-.8-.1-.5-.5-1-1.1-1.6-1.6.5-.3 1-.5 1.6-.8 2-.6 4.1-1.2 6.1-1.8 0-.3-.1-.7-.1-1-1.7-.6-3.3-1.3-5-1.9-.8-.3-1.7-.5-2.5-.8l-1.8-1.5c2.4-1.3 3.5-2.9 1-5.2-.4-.4-.5-1.1-.7-1.7.5-1 1-2.1 1.5-3.1 5.7-.1 11.5-.1 17.2-.2 4.2 1.6 8.3 3.3 12.5 4.9.9 1.8 1.6 3.8 2.8 5.4.6 1.5 2.2 2 3.4 2.7zM703.3 33.5c.1-.5.2-1 .2-1.5 1.3-.6 3-.9 3.8-1.9 1.6-2.1 2.7-4.5 4.1-6.8h.8l3.9 3.9c.3-.8.5-1.5.8-2.3 1 .3 2 .5 3 .8-.5.8-1 1.6-1.4 2.3l-.6.9c-.1.2-.1.5-.1.7-.3.2-.6.5-.9.7-.8.3-1.5.6-2.3.9-.8.5-1.5 1-2.3 1.5.5.3 1 .5 1.4.8h1.6v3.2c0 .2-.1.4-.2.6-1.5.4-3 .7-4.5 1-.3.2-.6.5-.9.7-1.1-.3-2.1-.5-3.2-.8-.5-.5-1.1-1-1.6-1.6.1-.2.1-.5.2-.7.2-.3.4-.5.6-.8-.8-.6-1.6-1.1-2.4-1.6zM840.3 175.9c.9-1.2 1.8-2.4 3.1-4.1 1.1.6 2.5 1.2 3.7 1.8 1.9-.9 3.8-1.8 6-2.9.4 1.3.6 2 .7 2.4 2.1.3 4.1.6 6.1 1-.2.3-.3 1-.5 1-6.3.3-12.7.5-19.1.8zM910.1 112.1c-3.4-1.5-3.4-1.5-3.4-10-2-.7-5.1-.9-3.4-4.6 1.3.4 2.5.8 3.7 1.2.6 2 1.2 3.9 1.7 5.9.5 2.4.9 5 1.4 7.5zM880.4 175c1.8-.7 3.7-1.3 5.7-2.1-.2-.4-.4-1-1.3-2.9 2.8.6 4.8.9 6.7 1.4 2.3.6 4.6 1.3 6.9 2-1.6.4-3.3 1.2-4.9 1.3-4.4.2-8.8.2-13.1.3zM903.1 155.3v-.7c.7-.6 1.5-1.2 2.2-1.8 1.6 2.4 3 5.1 6.3 5.8.4.1.6.8.9 1.2-.4.4-.8.7-1.2 1-.4.8-.7 1.5-1.1 2.3H907c-.3 0-.5-.1-.8-.1-.3-.5-.5-1-.8-1.5v-.8c-.3-1.3-.5-2.6-.8-3.9-.4-.5-.9-1-1.5-1.5zM687 71.2c1.6-1.6 3.1-3.3 4.7-4.9.3.3.6.7.9 1v.8c.5.3 1.1.5 1.6.8h.7v.7c-.3.3-.6.6-.8.9.8.5 1.6 1 2.3 1.5v.9h-.8c-1 .3-2.1.5-3.1.8-.8.5-1.6 1.1-2.4 1.6h-.8c0-.3 0-.6-.1-.9-.2-.5-.4-.9-.6-1.4-.5-.7-1.1-1.3-1.6-1.8zM891.4 10.5c-4.7-2-9.5-4-14.2-6.1v-.8c4.6 1.3 9.2 2.4 13.7 4.1 1.3.5 2 2.5 3 3.8-.9-.3-1.7-.7-2.5-1zM891.4 10.5c.8.4 1.6.7 2.4 1.1.8 1.5 1.7 2.9 2.3 4.4 1.3 3.5 2.7 7 3.6 10.6.2.9-.8 2.2-1.2 3.3-.1-4.6-1.9-8.1-5.8-11.4 1.5-2.5 1.4-5.5-1.3-8zM906.5 87.6c-1.8-.8-3.6-1.5-6.4-2.7 2.2-1.5 3.2-2.2 3.8-2.5.6-2.2 1.1-3.9 1.6-5.7.6 1.3 1.5 2.5 1.7 3.8.5 2.4 1.4 4.9-.7 7.1zM904.7 150.5c3.5-4.7 4.6-5.1 8.8-3.1-.1.8-.2 2.2-.3 2.2-4.8 0-3.8 2.5-2.5 5.3.1.2-.2.7-.3 1.1-1.1-1.3-2.3-2.7-3.4-4-.8-.5-1.6-1-2.3-1.5z"/><path class="st1" d="M711.4 23.3c-1.3 2.3-2.4 4.7-4.1 6.8-.8 1-2.5 1.3-3.8 1.9 1.4-4.3 2.8-8.6 6.3-11.7l-.1-.1c.3.3.6.7.9 1 .3.6.5 1.4.8 2.1zM799.3 66.6c-2-1.9-4-3.9-6-5.8-1.8-1.7-3.6-3.5-5.5-5.1-1-.9-3.4-1.1-1.7-3.3 1.3.9 2.5 2.1 3.9 2.8 2.7 1.2 5.1 2.3 5.6 5.7.1.7 1.1 1.2 1.5 1.9.8 1.2 1.5 2.5 2.2 3.8zM877.2 3.6v.8c-3.3-1.1-6.7-1.8-9.2.6-.6 1.3-1.3 2.7-1.9 4-.5-1.3-1.8-3.6-1.4-3.9 1.9-1.6 2.6-5.3 6.2-4.3 2.1.8 4.2 1.9 6.3 2.8zM851.2 25.6c.2.5.4 1 .7 1.3 3.2 3.2 1.9 5.5-1.5 7.4v-.9c-.3-.2-.5-.5-.8-.7-.5-.2-.9-.5-1.4-.7l-.9-2.4c1.3-1.4 2.6-2.7 3.9-4zM903.9 66.5c-1.4-1.3.1-4.7-3.2-4.8-.1 0-.7-2.7-.1-3.6 1.4-2.3.4-3.7-1.3-5 1.8 0 2.8.5 3.6 2.5 1.4 3.6 2.8 7 1 10.9zM832.9 47.5c.7-2.2 1.1-4.6 2.2-6.6.3-.6 2.3-.3 3.5-.4 0 .3 0 .6.1.8-3.1 1.1-1.4 2.1.1 3.2-.3.8-.5 1.6-.8 2.5 0 .2-.1.5-.1.7-1.7-.1-3.3-.2-5-.2zM825.4 70.4c-3 .2-5.9.5-8.9.7.9-1.5 1.8-3.1 2.7-4.6 2.4.8 5.9-.2 6.2 3.9z"/><path class="st1" d="M832.9 47.5c1.7 0 3.3.1 5 .1l2.4 4.8h-.7c-.3-.3-.6-.6-.9-.8-.3.3-.5.6-.8.8l-.8.8h-.8c-1-.5-2.1-1.1-3.1-1.6-.6-.5-1.1-1.1-1.7-1.6.5-.9.9-1.7 1.4-2.5zM693.1 61.7c-.1-2.5-1.5-5.2 1.5-7 .2 0 .3 0 .5.1.2.3.3.5.5.8-.3 1.4-1.3 2.8 1 3.8.7.3.9 2 1.3 3.1-.5 0-.9.1-1.4.1-1.1-.4-2.3-.6-3.4-.9zM717.5 11.4l1.8 1.5c-.6.3-1.1.6-1.7.9-.8.8-1.6 1.6-2.4 2.3-.3 0-.5 0-.8.1-.8 1-1.6 2.1-2.4 3.1-.3 0-.6.1-.8.1-.5.2-1 .4-1.6.6l.1.1c.7-1.5 1.1-3.7 2.3-4.4 2.1-1.2 3-2.8 3.2-5 .9.3 1.6.5 2.3.7zM685.4 81.5c-.8-.8-1.7-1.5-2.5-2.3.1-.3.2-.6.2-.8 1-1.1 2.1-2.1 3.1-3.2-.1.2-.1.3 0 .5v.1c.5.6 1 1.2 1.6 1.8H690.2c.5.8 1 1.5 1.5 2.3-.2 0-.5.1-.7.1h-1.6c-2.3-2-2.4.3-3.1 1.5-.3-.1-.6-.1-.9 0zM736.6 1.2c-5.7.1-11.5.1-17.2.2 5.5-.5 10.9-1 16.4-1.4.2 0 .5.8.8 1.2zM806.4 175.8c4-1 8.1-2.1 12.2-3.1.7-.2 1.4.1 2.1.1-.5 1-1.1 2-1.6 2.9-4.3 0-8.5 0-12.7.1z"/><path class="st1" d="M717.5 11.4l-2.1-.6c.8-2.1 1.6-4.2 2.5-6.2.2.6.3 1.3.7 1.7 2.4 2.3 1.4 3.8-1.1 5.1zM609.1 3.7c-3.3.8-6.6 1.4-9.3-1.6 1.6-1.1 3-1.9 5 0 1.2 1.1 3.5 1 5.3 1.5-.4 0-.7.1-1 .1zM859.8 13.8c-.2.8-.4 1.6-.5 2.5-.2 3-1.1 5.4-4.9 4.8 1.9-2.5 3.7-4.9 5.4-7.3zM819.6 175.9c1.8-.5 3.6-1.1 5.4-1.5.8-.2 1.7-.2 2.4.1 2 .6 3.9 1.4 5.9 2.2-4.5-.3-9.1-.6-13.7-.8zM906.9 152c1.1 1.3 2.3 2.7 3.4 4 1.1 1.1 4.4.8 2.2 3.8-.3-.4-.5-1.1-.9-1.2-3.3-.7-4.7-3.3-6.3-5.8.6-.2 1.1-.5 1.6-.8zM683.1 78.3c-.1.3-.2.6-.2.8h-3.5c.3-.2.7-.4 1-.6-.8-1.6-1.6-3.1-2.3-4.8-.5-1.4-.8-2.9-1.2-4.4 1.6 2.4 3.1 4.8 4.7 7.1.4.8 1 1.3 1.5 1.9zM831.5 49.9c.6.5 1.1 1.1 1.7 1.6-.8.8-1.6 1.6-2.3 2.4.8.3 1.6.5 2.3.8.3.5.5 1 .8 1.6-1.9-.8-3.7-1.6-5.6-2.4 1.1-1.4 2.1-2.7 3.1-4z"/><path class="st1" d="M609.1 3.7c.3 0 .7-.1 1-.1 4.2 1 8.4 2 12.7 3-4.6-.9-9.2-1.9-13.7-2.9zM755.5 13.8c-1.2-.7-2.8-1.2-3.6-2.2C750.6 10 750 8 749 6.2c.8.2 2.4.4 2.4.6.1 3.1 2.6 4.7 4.1 7zM865.4 174.1c4.9-2.2 9.6-1.2 14.1.9l-14.1-.9zM696.5 51.6c.8-2.9 1.5-5.8 2.3-8.7.3.5.5 1 .8 1.6.3 0 .5 0 .8.1v1.6c-.3.2-.5.5-.8.7-.3.3-.6.5-.8.8-.3.8-.5 1.6-.8 2.4l-.6.9c-.3.1-.6.3-.9.6zM847.4 29.6l.9 2.4c.5.2.9.5 1.4.7.3.2.5.5.8.7-.5.6-1 1.1-1.5 1.7h-2.4v-.8c-.3-.6-.5-1.1-.8-1.7.5-1 1-2 1.6-3zM911.8 162.3c3 1.2 3.8 3.4 3.3 6.4h-2.5c0-.3-.1-.5-.1-.8.3-.3.6-.5.8-.8v-1.7c-.3-.3-.6-.5-.8-.8l-.8-.8c.1-.4.1-.9.1-1.5zM911 136.4c.3-.3.7-.6 1-.9v3.3h-1.8c-.6-1.4-1.2-2.7-1.8-4.1.4-.1.7-.3 1.1-.4.2.7.5 1.4.7 2.1h.8z"/><path class="st1" d="M845.7 32.5c.3.6.5 1.1.8 1.7-.2.3-.5.5-.7.8l-.8.8c.3.5.5 1 .8 1.5-1 0-2.1.1-3.1.1-.3 0-.5 0-.8-.1l-.1-.1c.6-.8 1.2-1.5 1.7-2.3 0-.3 0-.5.1-.8.7-.4 1.4-1 2.1-1.6zM703.3 33.5c.8.5 1.6 1.1 2.4 1.6-1.3.8-2.5 1.6-3.8 2.4h-1.5c.3-1 .5-2 .8-3 .3 0 .5-.1.7-.3.5-.3 1-.5 1.4-.7zM696.5 51.6c.3-.3.6-.5.9-.8h.6v.8c-1 2.6.5 2.7 2.4 2.4-1.3.5-2.6 1-4 1.6-.4-.3-.9-.5-1.3-.8-.2-.1-.3-.1-.5-.1.7-1.1 1.3-2.1 1.9-3.1zM687.8 77.5c-.5-.6-1-1.2-1.6-1.8v-.1c-.1-.2 0-.3 0-.5.2-1.3.5-2.6.7-3.9l1.7 1.7c.2.5.4.9.6 1.4 0 .3 0 .6.1.9-.2 0-.4.1-.7.2-.2.6-.5 1.4-.8 2.1zM838.7 41.3c0-.3 0-.6-.1-.8v.1c.6-1 1.1-2.1 1.7-3.1.5 0 1-.1 1.5-.1l.1.1c-.3.8-.5 1.6-.8 2.3l-.8.8c.3.2.5.5.8.7h.8c.3.5.5 1.1.8 1.6-.5.3-1 .5-1.5.8-.9-.8-1.7-1.6-2.5-2.4z"/><path class="st1" d="M700.5 37.4h1.6c.5.5 1 1 1.4 1.5-.2.8-.5 1.6-.7 2.4h-1.6c-.3-1.1-.6-2.2-.8-3.3-.1-.2 0-.4.1-.6zM693.1 61.7c1.1.3 2.3.6 3.4.9-1 1.3-2.1 2.6-3.1 3.9l-.8.8c-.3-.3-.6-.7-.9-1 .4-1.6.9-3.1 1.4-4.6zM911.8 162.3v1.6c-.2.5-.5 1-.7 1.5-.3 0-.5 0-.8.1v-.8-1.6c.4-.8.7-1.5 1.1-2.3.1.6.2 1 .4 1.5zM910.2 168.7c-.8.3-1.6.5-2.4.8 0-.8 0-1.6.1-2.3h.8l.7.7c.3.2.5.4.8.5v.3z"/><path class="st1" d="M907.9 167.1c0 .8 0 1.6-.1 2.3h-1.7c.7-.8 1.2-1.5 1.8-2.3zM700.3 38.1c.3 1.1.6 2.2.8 3.3l-.8.8.1.1c-.3 0-.5 0-.8-.1.3-1.4.5-2.8.7-4.1zM840.3 37.4c-.6 1-1.1 2.1-1.7 3.1.5-1 1.1-2 1.7-3.1z"/><path class="st1" d="M699.7 42.2c.3 0 .5.1.8.1 0 .5-.1 1-.1 1.5-.3.2-.5.5-.8.7-.3-.5-.5-1-.8-1.6.3-.3.6-.5.9-.7zM912.6 167.9c0 .3.1.5.1.8-.5.5-1.1 1-1.6 1.5-.3-.5-.5-1-.8-1.5l-.1-.3c.1-.2.1-.4.2-.6.7 0 1.4 0 2.2.1z"/><path class="st1" d="M912.7 168.7h2.5c-.8.5-1.7 1.1-2.5 1.6-.1-.5-.1-1 0-1.6zM912.6 168.7v1.6c-.5 0-1.1 0-1.6-.1.6-.5 1.1-1 1.6-1.5zM812.1 78.1c.3.2.7.3 1 .5-.4.1-.8.3-1.2.4.1-.3.2-.6.2-.9zM701.9 34.1c-.2.2-.4.3-.7.3.2-.1.5-.2.7-.3zM843.6 34.3c0 .3 0 .5-.1.8-.1-.3-.1-.6.1-.8zM857.7 51.6c2.2 4.6-2.7 5.8-4.2 8.6-2.3.8-5.4-2.4-7 1.6-.5-.3-1.1-.5-1.6-.8v-.9c.7-1.5 1.5-3.1 2.2-4.6.8.2 1.7.5 2.5.7l.8.8h.8v-1.6-.8-.8c.8-1 1.6-2.1 2.4-3.1h.8c.5.3 1.1.5 1.6.8.6.1 1.2.1 1.7.1zM698.8 97.9c-1.8 5.3-6.5 5.4-10.6 5-5.5-.6-10.8-2.2-16.2-3.4 1.3-1 2.6-2.1 3.8-3.1.2 1.2.5 2.3.5 2.5 2.3.8 4.1 1.4 5.9 2 1.9.2 3.8.6 5.8.7 2.1.1 4.3 0 6.6 0v-3.3c1.5-.1 2.9-.2 4.2-.4zM787.6 157.4c6.9-1.1 13.8-2.4 20.7.1l-9.6 2.1c-4.1.9-7.8.5-11.1-2.2zM628.1 103.4c.3 1.6.7 3.2 1 4.8 0 .1-.1.1-.1.2.4 2 .9 3.9 1 5.9.1.8-.7 1.6-1.2 2.4-1.5-3.5-3-7.1-4.5-10.6-1-2.3-.2-3.7 2.1-4.4.6.6 1.1 1.2 1.7 1.7zM629.7 146.6c.6 2.9 1.3 5.9 2.1 9.5h5.7c-2.8.6-5.6 1.3-8.4 1.8-.7.1-1.9-.3-2.2-.9-.4-.8-.5-2-.3-2.9.4-1.7 1.1-3.4 1.6-5 .4-.9 1-1.7 1.5-2.5z"/><path class="st1" d="M629.7 146.6c-.5.8-1 1.6-1.6 2.4-3.1-2.3-3.9-8-1.6-11.7 3.7 1.9 2.6 5.5 3.2 8.6v.7zM814.4 156.9c3-.3 5.9-.7 8.9-.9 1.6-.1 3.3.5 4.7 0 3.5-1.1 6.7-1 10 .8h-5.3c-.7 2.7-2.5 2.5-5.2 1.8-4.3-1-8.8-1.2-13.1-1.7z"/><path class="st1" d="M629.7 145.9c-.6-3 .5-6.7-3.2-8.6-1.8-3.4 1.1-4.3 3.1-5.6.2 1.2.8 2.5.6 3.7-.5 3.4 3 7.1-.5 10.5zM856 153.7c2.9.2 5.9.5 8.8.7-4.5.7-9 1.7-13.5 2.1-1.9.2-3.5 3.7-5.6.5 3.5-1.1 6.9-2.2 10.3-3.3zM628.1 103.4c-.5-.5-1.1-1.1-1.6-1.7.6-5.5 1.2-11.1 1.8-16.6.1-.7.4-1.5.6-2.2.3 1.1.6 2.2.8 3.3-.1 4.1-.2 8.1-.4 12.2-.1 1.7-.8 3.4-1.2 5z"/><path class="st1" d="M629.7 86.3c-.3-1.1-.6-2.2-.8-3.3V63.3c.4 2.7 1.1 5.3 1.1 8 .1 5-.1 10-.3 15zM871.8 35.1c.1 4.4-1 8-6.1 8.7.7-1.9 1.4-3.7 2.2-5.6.2-.1.5-.2.7-.3.5-.7 1.1-1.4 1.6-2.1V35c.5.1 1 .1 1.6.1zM695.7 86.9c-.9 2.9-2.5 3.2-4.4 1-1.1-1.2-1.8-2.8-2.7-4.1.3-.3.6-.5.9-.8.3 0 .6.1.8.1h2.9c.3 0 .6 0 .9-.1v.8c-.3.5-.5 1.1-.8 1.6v.8c.8.2 1.6.5 2.4.7zM856 153.7c-3.4 1.1-6.8 2.2-10.3 3.3-1.6-.1-3.2-.1-4.8-.2 1.9-.8 3.8-1.9 5.8-2.3 3.1-.6 6.2-.6 9.3-.8zM872.4 153.4c1.6 0 3.2.1 4.8.1.8 1.1 1.6 2.1 2.4 3.2-3.1-.5-6.2-1-9.3-1.4.7-.6 1.4-1.2 2.1-1.9zM651.7 155.3c1-3.1 3.5-1.6 5.2-1.3 2.9.4 6.4-.7 8.2 2.9-4.4-.6-8.9-1.1-13.4-1.6zM744.4 156.9c3.4 0 6.8 0 10.2.1-2.2.7-4.5 1.6-6.8 1.8-1 .1-2.2-1.2-3.4-1.9zM768 155.3c3 0 5.9-.1 8.9-.1-2.3 1.3-4.6 2.7-7 3.7-.7.3-1.9-.4-2.8-.6l.9-3zM906.9 152c-.5.3-1.1.6-1.6.9-.7.6-1.5 1.2-2.2 1.8-1.3-.2-2.6-.5-3.9-.7-.1-.3-.2-.6-.3-1 1.9-.8 3.8-1.7 5.7-2.5.8.5 1.6 1 2.3 1.5z"/><path class="st1" d="M879.6 156.7c-.8-1.1-1.6-2.1-2.4-3.2 2.4.4 4.8.7 7.2 1.1-.9 2.5-2.8 2.5-4.8 2.1zM647.7 70.5c-1.3-1.6-2.7-3.2-4-4.8 1.6-.2 3.1-.3 5.1-.6-.4 2.1-.8 3.8-1.1 5.4zM682.3 101c-1.8-.6-3.6-1.2-5.9-2 0-.2-.3-1.4-.5-2.5 2.1.6 4.2 1.2 6.6 2-.1.5-.2 1.5-.2 2.5zM768 155.3l-.9 3c-3-.2-6.6 1.6-8.6-2.3.2-.2.5-.5.6-.4 3 2.9 6 1.1 8.9-.3zM664.3 93.2c-2.1-3.1-4.3-6.2-6.4-9.3 1 1 2.1 1.9 3.1 2.9 1.1 1.1 2.1 2.4 3.7 4.2 0-.1-.2 1-.4 2.2zM908.7 167.1h-.8c-1.1-.4-2.2-.7-3.2-1.1-1.1-.4-2.1-.8-3.2-1.1l2.4-.9v-1c.6 0 1.1 0 1.6.1h.8c.3 0 .5.1.8.1 0 .3 0 .6.1.9 0 .2.1.5.1.7.2.2.4.5.7.7.3 0 .5.1.8.1v.7c-.2.2-.2.5-.1.8zM859.9 38.2c0-.2 0-.4-.1-.6.2-.3.5-.6.7-.9 1.3-.8 2.7-1.6 4-2.4l.8.8c.5.6 1 1.1 1.6 1.7v.6c-.3 0-.6 0-.8.1h-1.5c-.3 0-.5 0-.8-.1-.8.3-1.6.5-2.4.8h-1.5zM845.8 42.1c.8.2 1.6.4 2.4.7v.2l-2.4.6c-.3 0-.5.1-.8.1-.5-.2-1.1-.5-1.6-.7-.2-.5-.5-1.1-.8-1.6v-.8c.2-.3.5-.5.8-.8h.8l.8.8c.2.5.5 1 .8 1.5zM904.7 156.9c.3 1.3.5 2.6.8 3.9h-1.6c-.3-1.3-.5-2.6-.8-3.9h.8c.1.3.2.6.2.9.3-.3.4-.6.6-.9zM703.6 85.3c-.5-1-1.1-2.1-1.6-3.1h.8c.4.3.9.7 1.3 1 .3-.6.7-1.2 1-1.8.5.2 1 .5 1.6.7v.8c-.3.3-.5.6-.8.8 0 .3.1.6.1.9v-.1c-.3 0-.6-.1-.8-.1-.6.4-1.1.7-1.6.9z"/><path class="st1" d="M848.1 42.8c1.6.6 3.1 1.1 4.7 1.7-.8 0-1.6 0-2.5-.1-.7-.5-1.5-1-2.2-1.5v-.1zM903.9 163.4v.7l-2.4.9c.8-.6 1.6-1.1 2.4-1.6zM859.9 38.2h1.6c.8-.3 1.6-.5 2.4-.8.3 0 .5 0 .8.1V39c-.6.5-1.1 1-1.7 1.5v-.8l-.7-.7-1.5.9c-.3-.6-.6-1.1-.9-1.7zM844.2 39.8h-1.5v-.1-.8h2.3c.5 0 1-.1 1.5-.1-.2 1.1-.5 2.2-.7 3.3-.3-.5-.5-1-.8-1.6-.3-.2-.5-.5-.8-.7zM702 81.4h-2.3c-.3-.3-.5-.6-.8-.9-.8-.2-1.6-.5-2.3-.7 1-.3 2-.5 3.1-.8.8.5 1.5 1.1 2.3 1.6-.1.3-.1.5 0 .8zM856 51.6c-.5-.3-1.1-.5-1.6-.8.3-.5.5-1 .8-1.6v-.8h.8v3.2zM695.7 86.9c-.8-.3-1.6-.5-2.4-.8h4.7c-.8.3-1.5.6-2.3.8zM866.2 34.3l.8-.8c.8.3 1.6.5 2.4.8v1.6l-.8.8h-.9c-.2-.5-.5-1-.7-1.5-.2 0-.5 0-.7.1V35c-.1-.3-.1-.5-.1-.7zM689.5 83c-.3.2-.6.5-.9.8-.3 0-.6-.1-.9-.1-.5-.5-1-.9-1.6-1.4l-.8-.8h.9c1.1.3 2.1.6 3.2.9.1.1.1.4.1.6zM698.8 83.8c-.3.5-.5 1.1-.7 1.6-.8-.3-1.6-.6-2.4-.8l.8-.8h2.3z"/><path class="st1" d="M695.7 84.6c.8.3 1.6.6 2.4.8 0 .2 0 .5-.1.7h-4.7v-.8c.5-.5 1-1.1 1.6-1.6h.8v.9zM846.5 38.9c-.5 0-1 .1-1.5.1-.8-.2-1.5-.5-2.3-.7v-.7c1 0 2.1-.1 3.1-.1.3 0 .5 0 .8.1-.1.3-.1.8-.1 1.3zM850.5 36.6c-1.3.3-2.6.5-3.9.8.3-.5.5-1.1.8-1.6h1.5c.5.3 1.1.6 1.6.8zM903.9 160.8h1.6v2.3c-.5 0-1.1 0-1.6-.1v-2.2zM856 48.4H853.6v-.8l.8-.8c.2-.2.5-.5.7-.8.4.8.6 1.6.9 2.4zM869.4 34.3c-.8-.3-1.6-.5-2.4-.8l.8-.8c.8.3 1.6.5 2.4.8v.8h-.8zM872.4 153.4c-.7.6-1.4 1.2-2.1 1.9 0-.3-.1-.6-.1-.9.7-.4 1.4-.7 2.2-1z"/><path class="st1" d="M850.5 36.6c-.5-.3-1-.5-1.6-.8 0-.3 0-.5.1-.8h1.5v1.6zM860.8 39.9l1.5-.9.7.7v.8c-.8-.2-1.5-.4-2.2-.6zM852.9 45.3c.5.3 1 .6 1.6.8h-3.2v-.8h1.6zM870.1 33.5c-.8-.3-1.6-.5-2.4-.8v-.8h2.4v1.6z"/><path class="st1" d="M850.5 35.1H849c.5-.6 1-1.1 1.5-1.7V35.1zM867.7 36.6h.9v1.3c-.2.1-.5.2-.7.3-.3-.3-.5-.6-.8-.8v-.6c.2-.1.4-.2.6-.2zM698.9 80.6c.3.3.5.6.8.9l-.8.8c-.2 0-.5 0-.8.1l-.1-.1c.3-.5.5-1 .8-1.5l.1-.2zM864.6 39v-1.5h1.5c-.4.5-.9 1-1.5 1.5zM867.9 154.4c.5.1 1 .1 1.5.2-.4.3-.7.5-1.1.8-.2-.4-.3-.7-.4-1zM852.9 45.3h-1.6l-.8-.8h-.1c.8 0 1.6 0 2.5.1v.7zM869.4 34.3h.8v1.6l-.8.8v-.8-1.6zM686.2 82.2c.5.5 1 .9 1.6 1.4h-.8c-.2-.2-.5-.4-.7-.7 0-.2-.1-.4-.1-.7z"/><path class="st1" d="M698.1 82.3c.2 0 .5-.1.8-.1v1.5h-1.6v-.8c.2-.1.5-.4.8-.6zM903.9 156.9h-.8v-1.6l1.6 1.6h-.8zM866.2 34.3v.6c-.2.1-.5.2-.7.2l-.8-.8h1.5zM860.6 36.7c-.2.3-.5.6-.7.9.2-.3.5-.6.7-.9zM703.6 85.3c.5-.3 1-.5 1.6-.8-.6.3-1.1.6-1.6.8zM910.2 138.8h.8-.8zM855.2 46.1c-.2.3-.5.5-.7.8v-.8h.7zM783 157.5c.3 0 .5.1.7.2-.2-.1-.5-.2-.7-.2zM702.7 82.2h-.8v-.8h.8v.8zM686.3 83c.2.2.5.4.7.7-.2-.3-.5-.5-.7-.7zM845 61c.5.3 1.1.5 1.6.8.3.5.5 1.1.8 1.6.2.2.4.5.6.7l2.4 1.5c-1.5 2.3-2.8 4.8-4.6 6.7-1.7 1.8-4.1 2.9-6.2 4.4-.6.4-1.1 1-1.6 1.5l-5.7-3.9c2.3-.4 4.6-.8 7.2-1.3-2.9-3-2.6-6-.1-9 .8-.2 1.6-.3 2.4-.5.2-.3.5-.6.7-.9.2-.3.5-.5.7-.7l.1-.1.7-.7c.5-.1.7-.1 1-.1zM849.7 56.3c-.8-.2-1.7-.5-2.5-.7-3.3.5-6.7 1.1-10 1.6 0-.3 0-.6-.1-.8.3-.3.6-.5.9-.8.5-.6 1-1.1 1.4-1.7 0-.5.1-1 .1-1.5h.7l-2.4-4.8c0-.2.1-.5.1-.7.8-.3 1.6-.6 2.4-.8.2 0 .4 0 .7-.1H847.3c.5 0 1.1.1 1.6.1v.8c-.5 1.1-1.1 2.1-1.6 3.2v.8c-.3.5-.5 1.1-.8 1.6.8.5 1.5 1 2.3 1.5l.8.8v.8c.1.2.1.4.1.7zM732.6 31.1c-1.8.5-3.6 1.1-5.4 1.6-.6-.6-1.2-1.1-1.7-1.7-.8-.4-1.5-.9-2.3-1.3v-.9l.9-2.4c.2-.5.5-1.1.7-1.6 2.4 1 4.8 2.1 7.2 3.1.2 1.1.4 2.2.6 3.2zM832.4 74.4l5.7 3.9c.2 1.1.4 2.1.5 3.2-.8 1-1.6 2-2.4 3.1-.5-.2-1-.5-1.5-.7v-1.6c.3-.8.5-1.6.8-2.3-.8-.3-1.6-.5-2.3-.8h-3.3c-.5-.6-1-1.1-1.5-1.7-.3-.5-.6-1-.8-1.5.6-.2 1.1-.5 1.7-.8h.8c.7-.3 1.5-.6 2.3-.8z"/><path class="st1" d="M836.2 84.5c.8-1 1.6-2.1 2.4-3.1-1.7 2.9-3.4 5.9-5.2 8.8-1 1.6-2.2 3-3.3 4.6-.3 0-.6-.1-.8-.1.3-2.9.5-5.7.8-8.6h.8l1.6 1.6c1.2-1.1 2.5-2.1 3.7-3.2zM826.1 85.3c-1.6 2.4-3.2 4.7-4.7 7.1-.2-.5-.5-1.1-.8-1.6H819c-.5-.3-1-.5-1.5-.8-.3-.5-.5-1-.8-1.6.7-.8 1.2-1.8 2-2.3 1.9-1 3.9-1.6 5.8-2.4l1.6 1.6zM837.2 57.2c3.3-.5 6.7-1.1 10-1.6-.7 1.5-1.5 3.1-2.2 4.6-.8 0-1.6.1-2.4.2h-.7c-.8-.5-1.6-1.1-2.4-1.6-.5.2-1 .5-1.6.7v.1c-.2-.9-.5-1.7-.7-2.4zM721.9 13.8c1.7.6 3.3 1.3 5 1.9 0 .3.1.7.1 1-2 .6-4.1 1.2-6.1 1.8-.3-.3-.6-.5-.8-.8.5-1 1.1-2.1 1.6-3.1 0-.2.1-.5.2-.8zM732.6 31.1c-.2-1.1-.4-2.1-.6-3.2 1.2-2.9 2.6-3.6 4.5-.6.7 1 1.6 1.9 2.4 2.9-2.1.4-4.2.7-6.3.9z"/><path class="st1" d="M829.2 94.7c.3 0 .6.1.8.1-1.8 2.6-3.7 5.2-5.5 7.8-1-2.5-2-4.9 2.4-5.1.8-.1 1.6-1.8 2.3-2.8zM817.5 90.1c.5.3 1 .5 1.5.8.2.3.5.5.8.8.3.3.6.5.8.8-.8.8-1.6 1.5-2.4 2.3-.2-.3-.4-.6-.5-.8-.1.3-.1.6-.2.9-1-.8-2.1-1.6-3.1-2.4.5-.2 1-.5 1.6-.7.5-.7 1-1.2 1.5-1.7zM834 56.3c-.3-.5-.5-1-.8-1.6v-1.6-1.6c1 .5 2.1 1 3.1 1.6h.8v1.6c-.8.5-1.5 1-2.3 1.5-.3 0-.5 0-.8.1zM826.1 85.3l-1.6-1.6c.3-.5.5-1 .8-1.6h2.4c.3.5.5 1 .8 1.6l-.8.8v2.3c-.5-.5-1-1-1.6-1.5z"/><path class="st1" d="M827.7 82.2h-2.4l1.5-2.4.8.8c1.3-.3 2.6-.5 4-.8.3.5.5 1 .8 1.5v.8h-1.6c-.8-.3-1.6-.5-2.3-.8-.3.4-.5.7-.8.9zM817.5 90.1c-.5.5-1 1.1-1.6 1.6l-.8-.8c.5-.8 1.1-1.6 1.6-2.3.3.4.5.9.8 1.5zM838.9 63.3c-.3-.8-.6-1.5-.9-2.3.3-.5.5-1 .8-1.5.3 0 .5-.1.8-.1.3.8.5 1.6.8 2.4h-.7c-.3.3-.5.6-.8.9-.1.2-.1.4 0 .6zM719.3 19.3c.5.5 1 1.1 1.6 1.6v.1c-.5.2-1.1.4-1.6.6h-1.5c0-.2-.1-.5-.1-.7-.3-.5-.5-1.1-.8-1.6h1.6c.2.1.5.1.8 0z"/><path class="st1" d="M839.5 61.8h1.5c.3 0 .5.1.8.1v.7c0 .3.1.6.1 1-.8.2-1.6.3-2.4.5-.2-.2-.4-.5-.7-.7 0-.2-.1-.4-.2-.6.4-.4.7-.7.9-1zM723.2 22.5c0 .2.1.5.1.7l-.3.2c-.2 0-.3 0-.5-.1-.6.2-1.1.4-1.7.6h-.7c-.5-.3-1.1-.5-1.6-.8v-.8h3.8c.3.2.6.2.9.2zM721.9 13.8c-.1.3-.2.6-.2.8-1.1-.3-2.1-.5-3.2-.8h-.8c.6-.3 1.1-.6 1.7-.9.8.3 1.6.6 2.5.9zM718.5 19.4h-1.6v-.8h.8c.2-.2.5-.4.7-.5.5-.1 1.1-.2 1.6-.3.3.3.6.5.8.8-.5.3-1 .5-1.6.8h-.7zM834.8 56.2c.8-.5 1.5-1 2.3-1.5v.1l.7.7.2.1c-.3.3-.6.5-.9.8-.7-.1-1.5-.1-2.3-.2zM828.5 77.4c.5.5 1 1.1 1.5 1.7-.2 0-.4 0-.7.1-.3 0-.6-.1-.8-.1-.2-.2-.4-.4-.7-.6l-.1-.1c.2-.5.5-.7.8-1z"/><path class="st1" d="M722.3 22.4H720v-.8c.3-.2.5-.5.8-.7v-.1c.3 0 .5.1.8.1.3.2.5.5.8.7 0 .3 0 .6-.1.8zM815.1 90.8c.3.3.6.5.8.8-.5.2-1 .5-1.6.7.3-.4.6-.9.8-1.5zM820.6 92.5c-.3-.3-.6-.5-.8-.8l.8-.8c.2.5.5 1.1.8 1.6-.3-.1-.5 0-.8 0zM827.6 75.9h-1.8c0-.2.1-.4.1-.5.6.1 1.1.3 1.7.5zM828.4 79c.3 0 .6.1.8.1-.5.5-1.1 1-1.6 1.5l-.8-.8V79h1.6zM827.8 86.9v-.8l.7-.7h.8c0 .3.1.6.1.8-.6.2-1.1.4-1.6.7z"/><path class="st1" d="M829.4 86.2c0-.3-.1-.6-.1-.8v-.8c.2-.3.5-.5.7-.8 0 .8 0 1.6.1 2.4h-.7zM817.5 94.8c.1-.3.1-.6.2-.9.2.3.4.6.5.8-.2.1-.5.1-.7.1zM724.8 24.8c-.2.5-.4 1.1-.7 1.6-.1 0-.3-.1-.4-.1.1-.5.1-1 .2-1.5l.2-.1c.3.1.5.1.7.1zM838.7 59.5c-.3.5-.5 1-.8 1.5v-1.6c.3 0 .6 0 .8.1z"/><path class="st1" d="M723.3 23.2c.3.5.6 1 .9 1.6l-.2.1h-.7c0-.2-.1-.5-.2-.7v-.7l.2-.3zM722.3 22.4c0-.2 0-.5.1-.7l.8.8c-.3 0-.6 0-.9-.1zM825.4 70.4zM830 75.1h-.8.8zM827.7 79h-.8c.2-.3.5-.5.7-.8l.1.1v.7zM722.4 21.7c-.3-.2-.5-.5-.8-.7.3.2.5.5.8.7zM702.8 41.3c.2-.8.5-1.6.7-2.4 0-.2.1-.5.1-.7H706.7c1.1.3 2.1.5 3.2.8h.8l.8.8v4h-.8c-2.6-.5-5.2-1-7.8-1.6-.2-.3-.2-.6-.1-.9zM718.5 23.3c.5.3 1.1.5 1.6.8v1.6h-.2c-1-.3-2-.5-3-.8-.3.8-.5 1.5-.8 2.3l-3.9-3.9.8-.8.8.8c.5.2 1 .5 1.5.7.3-.2.6-.5.9-.7h2.3z"/><path class="st1" d="M724.1 26.4l-.9 2.4c-.5.5-1.1 1-1.6 1.5h-2.1c-.2-.1-.3-.1-.5-.2l.3-.6c-.3-.6-.6-1.1-.9-1.7.5-.8 1-1.6 1.4-2.3h.7c1 .2 2.1.5 3.1.7.3.2.4.2.5.2zM716.8 30.3c.3-.2.6-.5.9-.7.3 0 .5.1.8.1.2.2.4.4.5.6.2 0 .3.1.5.2-.1.2-.1.5-.2.7.2.8.4 1.6.6 2.3-.5.5-1.1 1-1.6 1.5-.2.5-.4 1.1-.6 1.6-.3.3-.5.6-.8.9h-1.5l-.3-.2c.1-.2.1-.4.2-.6l.9-.9c.2-.3.5-.5.7-.8.3-.7.5-1.5.8-2.2l-.9-1.8v-.7z"/><path class="st1" d="M711.4 39.7l-.8-.8v-.6c1.5-.3 3-.7 4.5-1l.3.2c.2.3.4.5.7.7h.8c.3.1.6.1.9.2-.8.3-1.6.5-2.4.8l-3.3.6c-.2-.1-.5-.1-.7-.1zM713 22.5l-.8.8h-.8c-.3-.7-.5-1.5-.8-2.2.2-.1.5-.2.7-.3.2.1.4.1.7.1.6-.5 1.2-1 1.7-1.5.3.5.5 1.1.8 1.6-.2.3-.5.5-.7.8 0 .3 0 .5-.1.8-.2-.1-.5-.1-.7-.1zM716.8 30.3v.7c-.2.1-.4.1-.7.2 0 .3-.1.5-.1.8.3.2.6.5.8.7.3 0 .5.1.8.1-.3.7-.5 1.5-.8 2.2-.3 0-.5 0-.8.1-.3-.5-.5-1.1-.8-1.6-.3-.3-.5-.6-.8-.8v-1.5c.9-.3 1.7-.6 2.4-.9zM701.9 37.4c1.3-.8 2.5-1.6 3.8-2.4-.2.3-.4.5-.6.8-.6.3-1.1.5-1.6.8v.8h-1.6zM706.7 38.2h-2.4v-.8c.1-.2.1-.5.2-.7.2 0 .4 0 .6-.1.5.5 1 1.1 1.6 1.6zM716.1 27.2c.3-.8.5-1.5.8-2.3-.3.7-.5 1.5-.8 2.3z"/><path class="st1" d="M715.3 33.5c.3.5.5 1.1.8 1.6 0 .2 0 .5.1.7l-.9.9v-3.2zM714.5 31.2v1.5c-.2 0-.5.1-.7.1-.5 0-1 0-1.5-.1.7-.5 1.5-1 2.2-1.5zM718.4 27.9c.3.6.6 1.1.9 1.7-.3-.2-.6-.5-.9-.7h-.6c.2-.3.4-.7.6-1zM705 36.6c-.2 0-.4 0-.6.1h-.9c.5-.3 1.1-.5 1.6-.8 0 .2 0 .5-.1.7z"/><path class="st1" d="M713.8 32.7c.2 0 .5-.1.7-.1.3.3.5.6.8.8h-1.6c0-.2.1-.4.1-.7z"/><path class="st1" d="M713.8 32.7c0 .2-.1.5-.1.7-.5-.3-1-.5-1.4-.8.5.1 1 .1 1.5.1zM717.8 28.9h.6v.7c-.3 0-.5 0-.8-.1.1-.2.1-.4.2-.6zM710.7 38.3v.6h-.8c.2-.1.5-.4.8-.6zM907.1 164.1c0-.3 0-.6-.1-.9h3.2v1.6h-.7c-.3-.2-.6-.5-.9-.7-.5-.1-1-.1-1.5 0zM905.5 163.1v-1.5c.3.5.5 1 .8 1.5h-.8zM694.9 69.6v-.7c.3-.5.5-1.1.8-1.6 1-.3 2.1-.5 3.1-.8.5.3 1.1.5 1.6.8.2 0 .5.1.7.1 0 .5 0 1 .1 1.4-.3.2-.6.4-.8.6-.2.1-.4.1-.7.2H694.9zM690.1 75.1c.8-.5 1.6-1 2.4-1.6v1.6c.1.2.1.5.2.7.2 0 .4 0 .6-.1v.9h-3.1l-.8-.8c.2-.1.5-.4.7-.7z"/><path class="st1" d="M692.5 75.1v-1.6c1-.3 2.1-.5 3.1-.8h.8v-.9c.3-.2.5-.5.8-.7v.8c0 .7 0 1.5-.1 2.2-1 0-2 .1-3 .1-.3.3-.6.5-.9.8h-.7v.1zM695.7 67.3c-.3.5-.5 1.1-.8 1.6h-.7c-.5-.3-1-.5-1.6-.8.8-.5 1.6-1 2.4-1.6.3-.3.6-.5.8-.7-.1.5-.1 1-.1 1.5z"/><path class="st1" d="M697.2 71.2c-.3.2-.5.5-.8.7-.8-.5-1.6-1-2.3-1.5h3.2c-.1.3-.1.5-.1.8zM694.9 66.5c-.8.5-1.6 1-2.4 1.6v-.8l.8-.8h1.6zM689.3 74.2c-.2-.5-.4-.9-.6-1.4.2.5.4 1 .6 1.4zM690.1 75.1c-.2.3-.5.5-.7.8h-.8c0-.2 0-.4.1-.6.2-.1.4-.1.7-.2h.7zM695.7 70.4h-1.6c.3-.3.6-.6.8-.9.3 0 .5 0 .8.1v.8zM696.5 72.8h-.8.8zM694.1 68.8h.7-.7zM711.4 20.8c-.2.1-.5.2-.7.3-.3-.3-.6-.7-.9-1 .5-.2 1-.4 1.6-.6-.1.4-.1.8 0 1.3zM849.7 32.7c-.5-.2-.9-.5-1.4-.7.4.2.9.5 1.4.7zM838.7 41.3c.8.8 1.6 1.6 2.5 2.4 0 .3 0 .5-.1.8h-1.6c-.2 0-.5-.1-.7-.1-1.5-1-3.2-2-.1-3.1zM838.7 44.5c.2 0 .5.1.7.1 0 .2.1.4.1.6.1.3.3.5.4.8.1 0 .3 0 .4.1-.8.3-1.6.6-2.4.8.3-.8.6-1.6.8-2.4zM837.1 54.7v-.8c.3-.5.5-1 .8-1.5.3-.3.5-.6.8-.8.2.8.5 1.5.7 2.3-.5.6-1 1.1-1.4 1.7l-.2-.1c-.2-.3-.4-.5-.7-.8zM839.4 53.8c-.2-.8-.5-1.5-.7-2.3.3.3.6.6.9.8-.1.6-.1 1-.2 1.5z"/><path class="st1" d="M837.9 52.4c-.3.5-.5 1-.8 1.5v-.8c.3-.2.5-.5.8-.7zM696.4 55.5c1.3-.5 2.6-1 4-1.6.5-.3 1-.5 1.6-.8.2-.2.4-.4.7-.6 0-.3.1-.6.1-.9H705.9c.8-.2 1.5-.4 2.3-.7l.3.6c1.3.8 2.5 1.7 3.8 2.5-.5.2-1.1.5-1.6.7h-2.3c-.5-.3-1-.5-1.6-.8-1.1 1.1-2.2 2.1-3.3 3.2-.4.3-.9.6-1.3.8-.1.2-.1.4-.1.6 0 .3-.1.6-.1.9l.9.9-.9 1.5c-.3.2-.6.5-.9.7l-.8.8c-.8-.3-1.7-.6-2.5-.9-.4-1.1-.6-2.8-1.3-3.1-2.3-1-1.3-2.4-1-3.8h.9z"/><path class="st1" d="M697.9 62.4c.8.3 1.7.6 2.5.9v.8l.8.8v.8c-.3.5-.5 1.1-.8 1.6-.5-.3-1.1-.5-1.6-.8l-1.4-1.4-.1-.2c-.3-.6-.5-1.1-.8-1.7v-.7c.5 0 .9-.1 1.4-.1zM696.4 55.5h-.9c-.2-.3-.3-.5-.5-.8.6.3 1 .5 1.4.8zM717.7 18.5h-1.6l-.8-.8-.1-.1v-1.5c.8-.8 1.6-1.6 2.4-2.3l.8.8c-.2.3-.5.5-.7.8 0 .8 0 1.6-.1 2.3.1.3.1.6.1.8z"/><path class="st1" d="M712.2 19.4c.8-1 1.6-2.1 2.4-3.1.2.5.5 1 .7 1.5l.1.1c-.5.5-1.1 1-1.6 1.5-.6-.1-1.1-.1-1.6 0z"/><path class="st1" d="M715.3 17.7c-.2-.5-.5-1-.7-1.5.3 0 .5 0 .8-.1-.1.6-.1 1.1-.1 1.6zM711.4 20.8v-1.3c.3 0 .6-.1.8-.1 0 .5-.1 1-.1 1.5-.3 0-.5 0-.7-.1zM689.5 82.3c-1.1-.3-2.1-.6-3.2-.9.7-1.2.8-3.6 3.1-1.5l-.3.3.3-.3h1.6v.7l-.8.8v.8c-.2 0-.5.1-.7.1zM690.2 76.7h3.1v1.6c0 .3 0 .5.1.8 0 .5 0 .9.1 1.4-.3 0-.6.1-.9.1l-.8-.8c-.5-.8-1-1.5-1.5-2.3-.1-.3-.1-.5-.1-.8zM690.2 76.7v.8h-1.6v-1.6h.8l.8.8z"/><path class="st1" d="M688.6 75.9v1.6h-.8c.3-.7.6-1.5.9-2.2 0 .2-.1.4-.1.6zM691.7 79.8l.8.8h-1.6v-.7c.3 0 .6-.1.8-.1zM686.2 75.6v.1-.1zM833.2 51.6v1.6c-.8.3-1.6.5-2.3.8.7-.9 1.5-1.6 2.3-2.4z"/><path class="st1" d="M830.9 53.9c.8-.3 1.6-.5 2.3-.8v1.6c-.8-.3-1.6-.5-2.3-.8zM698.8 47.6c.3-.3.6-.5.8-.8.8.6 1.6 1.1 2.3 1.7v2.3c-.5-.3-1.1-.5-1.6-.8v-.8l-.8-.8-.7-.7v-.1zM700.4 43.7c0-.5 0-1 .1-1.5l-.1-.1h2.3v2.3c-.5.3-1 .5-1.6.8v.8h-.8v-1.6c.1-.2.1-.4.1-.7zM700.4 46.1h.8c.3 0 .6.1.9.1.2.5.4.9.6 1.4.3 0 .6.1.8.1-.5.3-1.1.5-1.6.7-.8-.6-1.5-1.1-2.3-1.7.3-.2.5-.4.8-.6z"/><path class="st1" d="M698 50c.3-.8.5-1.6.8-2.4l.1.1v.7l.8.8v.8c-.5 0-1 0-1.5.1l-.2-.1z"/><path class="st1" d="M698 50.8h-.6l.6-.9.1.1c0 .3 0 .5-.1.8zM700.4 43.7v.8c-.3 0-.5 0-.8-.1.3-.2.5-.4.8-.7zM849 35.1c0 .3 0 .5-.1.8H845l.8-.8h.8c.8-.1 1.6 0 2.4 0zM846.6 35h-.8c.2-.3.5-.5.7-.8 0 .3.1.6.1.8zM912.6 167.9c-.7 0-1.5-.1-2.2-.1-.3-.5-.6-1.1-.9-1.6v-.7h.8c.3 0 .5 0 .8-.1 0 .3 0 .6.1.9.5.2 1 .5 1.5.7.3 0 .6 0 .8.1-.4.3-.7.5-.9.8z"/><path class="st1" d="M911.1 166.3c0-.3 0-.6-.1-.9.2-.5.5-1 .7-1.5l.8.8v1.6h-1.4zM913.4 167.1c-.3 0-.6 0-.8-.1v-.8l.8-.8v1.7z"/><path class="st1" d="M913.4 165.5c-.3.3-.5.6-.8.8v-1.6c.2.3.5.5.8.8zM845 35.8h2.4c-.3.5-.5 1.1-.8 1.6-.3 0-.5 0-.8-.1-.3-.4-.5-.9-.8-1.5zM842.7 37.5v2.2h-1.6c.3-.8.5-1.6.8-2.3.2 0 .5.1.8.1zM698 50.8v-.7c.5 0 1 0 1.5-.1h.8c.5.3 1 .5 1.6.8v1.5c-.2 0-.5.1-.7.1h-.8c-.8-.3-1.6-.5-2.4-.8v-.8z"/><path class="st1" d="M698 51.6c.8.3 1.6.5 2.4.8v1.5c-1.9.4-3.4.3-2.4-2.3zM841.1 44.5c0-.3 0-.5.1-.8.5-.3 1-.5 1.5-.8.3 0 .5 0 .8.1.5.2 1.1.5 1.6.7v.7c.2.5.5 1 .7 1.6h-4.7c-.1-.5 0-1 0-1.5z"/><path class="st1" d="M843.4 43c-.3 0-.5 0-.8-.1-.3-.5-.5-1.1-.8-1.6h.8c.3.6.5 1.1.8 1.7z"/><path class="st1" d="M841.1 39.8h.8v1.6h-.8v-.7-.9zM841.1 39.8v.8h-.8c.2-.3.5-.6.8-.8zM840.3 40.6h.8v.7c-.3-.3-.5-.5-.8-.7zM702 37.4h1.5v.8c0 .2-.1.5-.1.7-.4-.5-.9-1-1.4-1.5zM702.8 42.1h-1.6c0-.3 0-.5.1-.8h1.6c-.2.3-.2.6-.1.8zM696.5 62.6v.7c-.3.3-.6.7-.8 1 .5.2 1.1.4 1.6.7l.1.2c-.6.2-1.1.4-1.7.7-.3.2-.6.5-.8.7h-1.6c1.1-1.4 2.1-2.7 3.2-4zM910.2 165.5h-.8v-.8H910.2v.8zM909.4 167.8l-.7-.7-.1-.1.8.8zM910.3 167.8c-.1.2-.1.4-.2.6-.3-.2-.5-.4-.8-.5h.1c.3 0 .6-.1.9-.1z"/><path class="st1" d="M701.2 41.3c0 .3 0 .5-.1.8h-.7c.3-.2.5-.5.8-.8zM715.5 69c-.6 1.5-1.2 3.1-1.7 4.6h-5.3c-1.1.5-2.2 1-3.3 1.4-.5.1-1.1.2-1.6.3-.2 0-.5 0-.7.1-.2-.1-.4-.1-.7-.1-.3-1.1-.6-2.1-1-3.2.5-.2 1-.5 1.6-.7.8-.5 1.7-1.1 2.5-1.6 1-.5 1.9-1 2.9-1.5 0-.3.1-.6.1-.9v-1.6c.8-.3 1.6-.5 2.4-.8v-.8-.8c3.4-1.6-.8-3.2 0-4.7 1.1-.5 3.7 0 1.5-2.4.3-.2.6-.5.9-.7 1.1 0 2.1 0 3.2-.1 1.1.8 2.1 1.6 3.2 2.5-.1.2-.3.4-.4.6-1.8 3.3-1.6 7.2-3.6 10.4zM715.4 39.1c.8-.3 1.6-.5 2.4-.8l-.1-.2c.3 0 .5 0 .7-.2l.9-.6c.5 0 .9-.1 1.4-.1.6 0 1.2.1 1.8.1-.3 1-.5 2.1-.8 3.1V42c.6.2 1.2.5 1.7.7.2 0 .5-.1.7-.1.2.1.5.1.7.2V46c-.3.8-.6 1.6-.8 2.4-1.3-.8-2.6-1.6-3.8-2.4-.5-.2-1.1-.5-1.6-.7h-2.4v-.8-.7-.8c0-.3 0-.5-.1-.8-.3-.5-.5-1-.8-1.5 0-.6.1-1.1.1-1.6z"/><path class="st1" d="M705.1 74.9c1.1-.5 2.2-1 3.3-1.4h5.3c-.4 3.5-1.6 6.6-4.6 8.9-.3-.3-.6-.7-.9-1l-.8-.8-.9-2.4c-.4-1.1-.9-2.2-1.4-3.3zM718.3 34.9c.5-.5 1.1-1 1.6-1.5.3 0 .6 0 .8.1 1.3-.3 2.6-.6 3.9-1 .3-.5.6-.9.9-1.4.6.6 1.2 1.1 1.7 1.7.6 1.3 1.2 2.5 1.7 3.8-1.1 1.6-2.3 3.2-3.5 4.9-.3 0-.5 0-.8-.1l-.8-.8c.3-.5.5-1 .8-1.6-.3-.5-.5-1-.8-1.5l-.8-.8h-1.7c-.3-.2-.5-.4-.8-.6-.2-.1-.5-.1-.7 0v-.3c-.3-.2-.5-.4-.8-.7h-.8l.1-.2z"/><path class="st1" d="M725.5 41.4c1.2-1.6 2.3-3.2 3.5-4.9.2 0 .7 0 .7.1 1.7 3.2-1.4 9.1-4.9 9.4v-2.3c0-.1.1-.2.1-.3 0-.2-.1-.4-.2-.6-.2-.1-.5-.1-.7-.2.5-.3 1-.8 1.5-1.2zM715.5 69c2-3.2 1.8-7.1 3.4-10.4.1-.2.3-.4.4-.6h.8c0 2.3.3 4.6.1 6.9-.3 2.6-1.4 4.6-4.7 4.1zM720.1 57.9h-.8c-1.1-.8-2.1-1.6-3.2-2.5.5-.8 1-1.5 1.5-2.3.1-.2.1-.5.2-.7.2-.2.4-.5.7-.7h.7c1.1.5 2.3.9 3.4 1.4 1.9 3-2.3 2.8-2.5 4.8zM850.5 65.6l-2.4-1.5c-.2-.2-.4-.4-.6-.7-.3-.5-.5-1.1-.8-1.6 1.5-4 4.7-.8 7-1.6-1.2 1.8-2.2 3.6-3.2 5.4z"/><path class="st1" d="M722.6 53c-1.1-.5-2.3-.9-3.4-1.4.3 0 .6-.1.9-.1.2-.2.2-.5 0-.7-.5.3-1.1.6-1.6.9-.2.2-.4.5-.7.7-.5-.3-1.1-.5-1.6-.8.2-.5.5-1 .7-1.5.2-.3.5-.5.8-.8h4.9V53zM722.6 49.3h-4.9c-.2-.1-.5-.2-.7-.2 0-.2 0-.4-.1-.6h.3c.3-.1.6-.2 1-.3-.1-.2-.3-.3-.4-.5 0-.2 0-.4.1-.6.5-.1 1-.1 1.4-.2.3-.2.6-.5.9-.7 1.3.8 2.6 1.6 3.8 2.4-.5.1-1 .4-1.4.7zM708.3 81.4c.3.3.6.7.9 1-.8.7-1.6 1.4-2.5 2.1v-.7-.8-.8c.5-.3 1-.5 1.6-.8z"/><path class="st1" d="M706.7 83.8v.7c-.2.1-.4.2-.7.2 0-.3-.1-.6-.1-.9h.8zM853.6 50.8c-.8 1-1.6 2.1-2.4 3.1v-1.6c.3-.8.5-1.6.8-2.4h.8c.3.4.6.6.8.9zM841.9 61.9c-.3 0-.5-.1-.8-.1.2-.3.5-.5.7-.8.3-.2.5-.5.8-.7.8-.1 1.6-.1 2.4-.2v.8h-.8l-.7.7-.1.1c-.5.1-1 .2-1.5.2z"/><path class="st1" d="M853.6 50.8l-.8-.8c.5.3 1 .5 1.6.8h-.8zM849.7 55.5v-.8h1.6v.8h-1.6zM851.3 54.7h-.8l.8-.8v.8zM851.3 56.3v.8h-.8v-.8h.8zM850.5 56.3v.8l-.8-.8h.8zM869.4 36.6l.8-.8c-.5.7-1.1 1.4-1.6 2.1v-1.3h.8zM691 80.6h1.6l.8.8h.8V83c-.3 0-.6 0-.9.1h.1c-.3-.3-.6-.5-.9-.8l-1.5.6c-.2-.2-.5-.4-.7-.6v-.8c.2-.3.4-.6.7-.9z"/><path class="st1" d="M690.9 82.8l1.5-.6c.3.3.6.5.9.8h-3c.2 0 .4 0 .6-.2zM694.9 83.8c-.5.5-1 1.1-1.6 1.6.3-.5.5-1.1.8-1.6h.8zM694.9 83.8h-.8V83v-.8h1.6v.8l-.8.8z"/><path class="st1" d="M690.9 82.8l-.6.3c-.3 0-.6-.1-.8-.1v-.7c.2 0 .5-.1.7-.1.2.2.5.4.7.6zM910.3 167.8c-.3 0-.6 0-.8.1l-.8-.8v-.8h.8c.2.5.5 1 .8 1.5zM907.1 164.1h1.5c0 .3 0 .5-.1.8H907.2c0-.4-.1-.6-.1-.8zM909.4 166.2h-.8v-.7h.8v.7z"/><path class="st1" d="M907.2 164.8h.7v.7l-.7-.7z"/><path class="st1" d="M907.9 165.5v-.7h.6l.1-.1v.8h-.7zM865.5 35.1c.2-.1.5-.2.7-.2v.3l.4.1.3-.1c.3.5.5 1 .7 1.5-.2 0-.4.1-.6.2-.5-.7-1-1.2-1.5-1.8zM863.9 37.4c-.8.3-1.6.5-2.4.8.8-.3 1.6-.5 2.4-.8zM845.8 46c-.2-.5-.5-1-.7-1.6.3-.3.5-.6.8-.9l2.4-.6c.7.5 1.5 1 2.2 1.5h.1-.7l-.8.8c-.5.2-1.1.5-1.6.7-.7.1-1.2.1-1.7.1zM841.8 41.3v-1.6h.8v1.6h-.8zM844.2 39.8l.8.8c-.3-.3-.5-.6-.8-.8zM842.6 40.5v-.7h.7c-.1.2-.4.5-.7.7z"/><path class="st1" d="M845.8 43.6c-.3.3-.5.6-.8.9v-.8c.3 0 .5-.1.8-.1zM903.9 156.9h.8c-.2.3-.4.6-.5.9l-.3-.9zM706.6 78.2l.9 2.4c-.3.5-.6 1-.8 1.5-.5-.2-1-.5-1.6-.7-.2-.3-.5-.6-.7-.9-.1-1-.1-2-.2-3v-.7c.8.5 1.6 1 2.4 1.4zM704.4 80.6c.2.3.5.6.7.9-.3.6-.7 1.2-1 1.8-.4-.3-.9-.7-1.3-1v-.8c.5-.4 1-.6 1.6-.9zM706.7 83.8c-.3 0-.5 0-.8.1.3-.3.5-.6.8-.8v.7zM863 39.7l-.7-.7c.2.3.5.5.7.7zM842.6 39v-.7c.8.2 1.5.5 2.3.7h-2.3zM695.7 83v-.8-.8-.7-.8h.9c.8.2 1.5.5 2.3.7l-.1.1c-.3.5-.5 1-.8 1.5l.1.1c-.3.2-.6.5-.8.7h-1.6z"/><path class="st1" d="M704.4 80.6c-.5.3-1.1.5-1.6.8h-.8v-.8c0-.2.1-.4.1-.6l.1-.1c.2 0 .5 0 .7-.1V79c-.1-.2-.1-.5-.1-.7v-1.1.1c.5.1 1 .1 1.6.2-.1 1.1-.1 2.1 0 3.1zM696.5 79.8h-.9c-.3-.5-.6-1-.8-1.5h3.2l.7-.7h.8v1.5c-.9.2-1.9.5-3 .7z"/><path class="st1" d="M699.6 79v-.8c1 0 2 .1 3.1.1 0 .2.1.5.1.7v.8c-.2 0-.5.1-.7.1l-.1.1c0 .2 0 .4-.1.6-.7-.5-1.5-1-2.3-1.6zM854.4 50.8c-.5-.3-1-.5-1.6-.8l.8-.8h1.6c-.3.5-.5 1.1-.8 1.6zM855.2 49.2h-1.6v-.8h1.6v.8zM867 35.1l-.3.1-.4-.1h.7zM869.4 36.6h-.8l.8-.8v.8zM695.7 83h1.6v.8h-1.6V83zM695.7 83.8h.8l-.8.8v-.8zM695.7 83v.8h-.8l.8-.8z"/><path class="st1" d="M853.6 48.4v.8l-.8.8h-.8l-.8-.8v-.8l.8-.8c0-.2 0-.4.1-.7.2-.1.5-.1.7-.1l.1.1.7.7v.8z"/><path class="st1" d="M854.4 46.1v.8l-.8.8-.7-.7-.1-.1v-.8h1.6zM849.7 44.5h.7l.8.8v.8h-2.4v-.8c.4-.3.6-.6.9-.8zM852.8 46.1v.8c-.2 0-.5.1-.7.1l-.9-.9h1.6zM698 82.2c.3-.5.5-1 .8-1.5-.3.5-.5 1-.8 1.5zM841.9 61.9c.5 0 1 0 1.5-.1l-.7.7h-.8v-.6zM841.8 62.6h.8c-.2.3-.5.6-.7.9 0-.3 0-.6-.1-.9zM843.5 61.7l.7-.7-.7.7zM847.4 63.4c.2.2.4.5.6.7-.2-.2-.4-.5-.6-.7zM851.3 48.4v.8c-.3.5-.5 1-.8 1.6-.5-.3-1.1-.5-1.6-.8h-1.6c.5-1.1 1.1-2.1 1.6-3.2.8.5 1.6 1.1 2.4 1.6zM846.6 52.4c.2-.5.5-1.1.8-1.6h1.6l.8.8-.8.8h-2.4z"/><path class="st1" d="M851.3 48.4c-.8-.5-1.5-1.1-2.3-1.6V46h2.4l.9.9c0 .2 0 .4-.1.7-.4.3-.7.6-.9.8zM846.6 52.4h2.3v1.5c-.8-.5-1.5-1-2.3-1.5zM851.3 53.9l-.8.8h-.8l-.8-.8c.8-.5 1.6-1 2.4-1.6v1.6zM841.1 44.5V46c-.2 0-.4.1-.7.1-.1 0-.3 0-.4-.1-.1-.3-.3-.5-.4-.8 0-.2-.1-.4-.1-.6.5-.1 1-.1 1.6-.1zM848.9 50.8h-1.6V50h1.6v.8zM848.9 45.3v.8c-.5 0-1.1-.1-1.6-.1.5-.3 1.1-.5 1.6-.7zM840.3 52.4zM850.5 56.3h-.8v-.8h.8v.8zM724.7 32.5c-1.3.3-2.6.6-3.9 1v-2.3l.8-.8c.5-.5 1.1-1 1.6-1.5v.9c-.2 1.3-1.1 2.9 1.5 2.7z"/><path class="st1" d="M724.7 32.5c-2.5.2-1.7-1.4-1.4-2.7.8.4 1.5.9 2.3 1.3-.4.5-.7.9-.9 1.4zM830.1 86.1c0-.8 0-1.6-.1-2.4.3-.3.6-.5.8-.8h.8v.7c.3.3.5.6.8.9.3-.2.5-.5.8-.7.3-.1.5-.1.7-.2.3 0 .5.1.8.1.5.2 1 .5 1.5.7-1.3 1.1-2.5 2.1-3.8 3.2V86h-1.6c-.2.1-.5.1-.7.1zM827.7 80.6c.5-.5 1.1-1 1.6-1.5.2 0 .4-.1.7-.1h2.5v.8h-.8c-1.4.3-2.7.6-4 .8zM835.5 79.9c-.3.8-.5 1.6-.8 2.3-.3 0-.5.1-.8.1-.2-.1-.5-.1-.7-.1v-.8-.8c.8-.2 1.6-.5 2.3-.7z"/><path class="st1" d="M835.5 79.9c-.8.3-1.6.5-2.3.8v-.8-.8c.8.2 1.6.5 2.3.8zM833.9 82.3c.3 0 .5-.1.8-.1v1.6c-.3 0-.6-.1-.8-.1v-1.4zM833.2 79.1v.8h-.8v-.8h.8zM830.8 86.1h1.6v1.6l-1.6-1.6zM820.6 90.8l-.8.8-.8-.8h1.6zM841.8 61c-.2.3-.5.5-.7.8h-.8c-.3-.8-.5-1.6-.8-2.4v-.7c.8.5 1.6 1.1 2.4 1.6 0 .2 0 .5-.1.7z"/><path class="st1" d="M839.5 58.7v.7c-.3 0-.5.1-.8.1-.3 0-.5-.1-.8-.1.5-.3 1.1-.5 1.6-.7zM841.8 61c0-.2 0-.5.1-.7h.7c-.3.2-.5.5-.8.7zM717.7 15.4c.3-.3.5-.5.7-.8v-.8c1.1.3 2.1.5 3.2.8-.5 1-1.1 2.1-1.6 3.1-.5.1-1.1.2-1.6.2 0-.1 0-.3.1-.4-.3-.5-.5-.9-.8-1.4v-.7zM830.8 83c-.3.3-.6.5-.8.8-.2.3-.5.5-.7.8h-.8v-.8c-.3-.5-.5-1-.8-1.6l.8-.8c.8.3 1.6.5 2.3.8v.8zM828.5 84.6h.8v.8h-1.5v-.8h.7z"/><path class="st1" d="M828.5 84.6h-.8l.8-.8v.8zM827.7 85.4h.7l-.7.7v-.7zM831.7 83.7V83v-.8h.8v1.5h-.8zM831.6 79.9h.8v1.6c-.2-.6-.5-1.1-.8-1.6zM828.5 81.4l-.8.8c.3-.2.5-.5.8-.8z"/><path class="st1" d="M833.2 81.4v.8c-.3 0-.5.1-.8.1v-.8h.4l.4-.1zM831.6 82.2v.8h-.4-.4v-.8h.8zM839.5 61.8c-.3.3-.5.6-.8.9.3-.3.6-.6.8-.9zM713.7 19.3c.5-.5 1.1-1 1.6-1.5l.8.8.8.8c.3.5.5 1.1.8 1.6h-.8c-.3 0-.5-.1-.8-.1-.3 0-.5.1-.8.1h-.8c-.2-.6-.5-1.1-.8-1.7zM717.7 23.3h-1.5c-.3.2-.6.5-.9.7l-.8-.8c-.1-.2-.1-.4-.2-.6.1-.1.3-.1.4-.2.8-.3 1.5-.5 2.3-.7h2.2c.3 0 .5.1.8.1v.8h-1.5c-.3.2-.5.4-.8.7zM720 21.7c-.3 0-.5-.1-.8-.1.5-.2 1.1-.4 1.6-.6-.2.2-.5.5-.8.7z"/><path class="st1" d="M717.8 21.6h-.7c-.1-.2-.1-.5-.2-.7h.8c0 .3 0 .5.1.7zM718.5 19.4h.8-.8zM720.6 25.6h-.5V24h.7l.1.1v1.5h-.3z"/><path class="st1" d="M720.8 24c.6-.2 1.1-.4 1.7-.6-.1.2-.1.4-.2.6-.5 0-.9.1-1.4.1l-.1-.1z"/><path class="st1" d="M722.3 24c0-.2.1-.4.2-.6.2 0 .3 0 .5.1v.7c-.2-.1-.4-.1-.7-.2zM717.7 23.3c.3-.2.5-.5.8-.8v.8h-.8zM718.5 13.9v.8l-.8-.8c.2-.1.5-.1.8 0zM717.7 18.5v-.8l.1-.1c.2 0 .5-.1.7-.2 0 .1-.1.3-.1.4-.2.4-.5.6-.7.7zM716.9 19.3l-.8-.8h.8v.8zM837.2 54.7l.7.7c-.3-.2-.5-.4-.7-.7zM827.7 79v-.6c.2.2.5.4.7.6h-.7zM723.7 26.3c-1-.2-2.1-.5-3.1-.7h1c.5-.3 1.1-.5 1.6-.8h.7c0 .5-.1 1-.2 1.5z"/><path class="st1" d="M723.2 24.8c-.5.3-1.1.5-1.6.8l-.7-.7v-.8c.5 0 .9-.1 1.4-.1.2 0 .5.1.7.1.1.2.2.5.2.7zM702.7 44.5v-2.3c2.6.5 5.2 1 7.8 1.6-.5.3-1 .5-1.6.8.3.3.5.6.8.8h2.4c1 .8 2.1 1.5 3.1 2.3-1 .6-2 1.1-3 1.7-.6 0-1.2 0-1.8-.1-2.1-.5-4.2-1.1-6.3-1.6-.2-.5-.5-1.1-.7-1.7-.3-.2-.5-.4-.8-.7.1-.3.1-.6.1-.8z"/><path class="st1" d="M709 44.5c.5-.3 1-.5 1.6-.8H713l.8.8h1.6c-1 .3-2.1.5-3.2.8h-2.4c-.2-.3-.5-.6-.8-.8z"/><path class="st1" d="M713 43.7h-.8c-.3-.5-.5-1-.8-1.6v-.8l.8-.8h.8v3.2z"/><path class="st1" d="M711.4 42.1c.3.5.5 1 .8 1.6h-.8v-1.6zM713 40.6h-1.6v-.8h.7c.3 0 .5.1.8.1.1.2.1.4.1.7z"/><path class="st1" d="M711.4 40.6h.8l-.8.8v-.8zM703.6 38.2v-.8c.2 0 .5 0 .7-.1v.8c-.3.1-.5.1-.7.1zM714.5 23.2l.8.8c-.5-.2-1-.5-1.5-.7.2 0 .4-.1.7-.1z"/><path class="st1" d="M714.5 23.2c-.2 0-.4.1-.7.1-.3-.3-.6-.5-.8-.8h.8c.2 0 .4.1.6.1 0 .2 0 .4.1.6zM715.3 24c.3-.2.6-.5.9-.7-.3.2-.6.5-.9.7zM719.3 31.1c0-.2.1-.5.2-.7h1.3v.8c-.5-.1-1-.1-1.5-.1zM718.5 29.6v-.7c.3.2.6.5.9.7l-.3.6c-.3-.2-.5-.4-.6-.6zM720.8 31.1v-.8h.8c-.3.3-.5.6-.8.8zM719.3 37.4l-.9.6c-.3 0-.5 0-.7.2l.1.2c-.3-.1-.6-.1-.9-.2v-.7c.3-.3.5-.6.8-.9h.3l.3-.1c.3 0 .6.1.8.1.2.3.2.6.2.8z"/><path class="st1" d="M719.3 31.1c.5 0 1 0 1.5.1v2.3c-.3 0-.6 0-.8-.1-.3-.8-.5-1.6-.7-2.3zM717.7 32.8c-.3-.1-.5-.1-.8-.1-.3-.2-.6-.5-.8-.7 0-.2.1-.5.1-.8.2-.1.4-.1.7-.2.2.6.5 1.2.8 1.8zM718.4 36.5l-.3.1h-.3c.2-.6.4-1.1.6-1.6l.1.1v.7c-.1.2-.1.5-.1.7zM716.2 35.8c-.1-.2-.1-.5-.1-.7.3 0 .5-.1.8-.1-.2.3-.5.5-.7.8zM716.9 37.5v.7h-.8c0-.2 0-.5.1-.7.2 0 .5-.1.7 0zM716.1 37.5c0 .2 0 .5-.1.7-.2-.2-.4-.5-.7-.7h.8zM712.9 39.8c-.3 0-.5-.1-.8-.1l3.3-.6c0 .5-.1 1-.1 1.4h-.8c-.5-.2-1-.4-1.6-.7zM712 20.9c0-.5.1-1 .1-1.5h1.6c-.5.4-1.1.9-1.7 1.5zM713.8 21.7c.2-.3.5-.5.7-.8v.8h-.7z"/><path class="st1" d="M713.8 21.7h.8c0 .2.1.4.1.7-.1.1-.3.1-.4.2-.2 0-.4-.1-.6-.1.1-.3.1-.5.1-.8zM716.2 31.2c0 .3-.1.5-.1.8 0-.3 0-.6.1-.8z"/><path class="st1" d="M716.1 31.9c.3.2.6.5.8.7-.3-.2-.5-.4-.8-.7zM704.2 37.4c-.2 0-.5.1-.7.1v-.8h.9c0 .2-.1.4-.2.7zM908.5 164.8c0-.3.1-.5.1-.8.3.2.6.5.9.7h-.9l-.1.1zM702.7 71.3c-.5.2-1 .5-1.6.7-.3.5-.6 1-.8 1.5-.5-.8-1-1.6-1.6-2.3l.9-1.5c.2 0 .5-.1.7-.2l.2.3c0 .2 0 .4.1.6.5.2 1 .5 1.5.7.2 0 .5 0 .7-.1l-.1.3zM695.7 65.8c.6-.2 1.1-.4 1.7-.7l1.4 1.4c-1 .3-2.1.5-3.1.8v-1.5z"/><path class="st1" d="M699.6 69.7l-.9 1.5c-.5.3-1 .5-1.5.8v-.8-.8h.1l.8-.8c.5 0 1 0 1.5.1zM701.2 68.8c0-.5 0-1-.1-1.4.3-.3.6-.6.8-.9l.8.8v.8c-.2.3-.5.5-.7.8-.3-.1-.6-.1-.8-.1z"/><path class="st1" d="M701.9 66.5c-.3.3-.6.6-.8.9-.2 0-.5-.1-.7-.1.3-.5.5-1.1.8-1.6.2 0 .5 0 .8.1-.1.2-.1.4-.1.7zM701.2 68.8h.9c.3.1.6.1.9.2 0 .2-.1.4-.2.6-.5 0-1.1.1-1.6.1h-.6l-.2-.3c.2-.1.5-.3.8-.6zM695.7 70.4v-.8h1.5c0 .3 0 .5.1.8h-1.6z"/><path class="st1" d="M697.3 70.4c0-.3 0-.5-.1-.8h.8c-.2.3-.4.6-.7.8zM693.3 76.7v-.9-.6H694.1l.8.8v.8c-.5-.1-1-.1-1.6-.1zM692.7 75.9c-.1-.2-.1-.5-.2-.7h.2v.7z"/><path class="st1" d="M692.7 75.9v-.7h.6v.6c-.2 0-.4 0-.6.1zM694.9 75.9l-.8-.8c0-.3.1-.5.1-.8 1 0 2-.1 3-.1.5.3 1.1.6 1.6.9 0 .3 0 .5.1.8-1.1.3-2.1.5-3.2.8-.3-.2-.6-.5-.8-.8z"/><path class="st1" d="M698.8 75.1c-.5-.3-1.1-.6-1.6-.9 0-.7 0-1.5.1-2.2.5-.3 1-.5 1.5-.8.5.8 1 1.6 1.6 2.3-.3.5-.5 1.1-.8 1.6h-.8zM694.2 74.4c0 .3-.1.5-.1.8h-.7c.2-.3.5-.6.8-.8zM839.5 45.2c.1.3.3.5.4.8-.1-.3-.2-.5-.4-.8zM717.6 53.1c-.5.8-1 1.6-1.5 2.3-1.1 0-2.1 0-3.2.1-.3-.5-.5-1-.8-1.5-1.3-.8-2.5-1.7-3.8-2.5.5 0 .9.1 1.4.1 1.1.1 2.2.1 3.2.2.8.5 1.5 1 2.3 1.5.9-.2 1.7-.2 2.4-.2zM704.3 47.6c2.1.5 4.2 1.1 6.3 1.6 0 .2.1.4.1.7-.3.1-.6.1-.9.2-.5.3-1.1.5-1.6.7-.8.2-1.6.4-2.3.7l-.7-.7c-.8-.5-1.6-1-2.4-1.6h-.7v-.8c.5-.2 1.1-.5 1.6-.7.1 0 .3-.1.6-.1zM703.4 57.1c1.1-1.1 2.2-2.1 3.3-3.2.3.8.5 1.5.8 2.3v1.6c-1.4-.1-2.7-.4-4.1-.7z"/><path class="st1" d="M703.4 57.1c1.3.3 2.7.5 4 .8v.8h-1.5c-.3.2-.6.5-.8.7l-.8.8h-.8c-.5-.3-1-.5-1.5-.8 0-.3.1-.6.1-.9.1-.2.2-.4.1-.6.4-.2.8-.5 1.2-.8z"/><path class="st1" d="M707.4 58.7v-.8-.8-.8c-.3-.8-.5-1.5-.8-2.3.5.3 1 .5 1.6.8.5.3 1 .5 1.5.8 0 .2.1.5.1.7 0 .3 0 .6-.1.9l-.8.8-.8.8c-.1-.2-.4-.2-.7-.1zM709.9 56.2c0-.2 0-.5-.1-.7.2-.3.5-.6.7-.8.5-.2 1.1-.5 1.6-.7.3.5.5 1 .8 1.5-.3.2-.6.5-.9.7-.2 0-.5.1-.7.2-.4-.1-.9-.2-1.4-.2zM703.5 60.2h.8v.8c-.2.3-.5.5-.7.8-.5.1-1 .2-1.4.3l-.2-.2.9-1.5c.2-.1.4-.2.6-.2zM702.7 49.2c.8.5 1.6 1 2.4 1.6v.7h-.8l-.8-.8c-.3-.3-.6-.6-.9-.8.1-.2.1-.5.1-.7zM700.4 64.1v-.8l.8-.8c.5.3 1.1.5 1.6.8v.8h-2.4zM708.2 50.8c.5-.2 1.1-.5 1.6-.7v1.4c-.5 0-.9-.1-1.4-.1-.1-.2-.2-.4-.2-.6z"/><path class="st1" d="M702.7 49.9c.3.3.6.6.9.8v.8H702v-.8-.7c.2 0 .5 0 .7-.1zM700.4 53.9v-1.5h.8l.7.7c-.5.3-1 .5-1.5.8zM702.7 63.3c-.5-.3-1.1-.5-1.6-.8.3-.2.6-.5.9-.7l.2.2c.3.2.5.4.8.6-.1.3-.2.5-.3.7zM703.5 60.2c-.2 0-.4.1-.6.1l-.9-.9c.5.3 1 .5 1.5.8zM702 53.1l-.7-.7c.2-.1.5-.1.7-.1.2.1.5.2.7.2-.3.2-.5.4-.7.6zM709.8 55.5c-.5-.3-1-.5-1.5-.8h1.6c-.1.3-.1.5-.1.8zM709.9 55.5v-.8h.7c-.3.3-.5.5-.7.8z"/><path class="st1" d="M702.6 52.5c-.2-.1-.5-.1-.7-.2v-.7h.8c0 .3 0 .6-.1.9zM705.2 51.5v-.7l.7.7h-.7zM703.5 51.6v-.8l.8.8h-.8zM702.1 58c.1.2.1.4-.1.6.1-.2.1-.4.1-.6zM697.3 64.9c-.5-.2-1.1-.4-1.6-.7.3-.3.6-.7.8-1 .2.6.5 1.2.8 1.7zM700.4 64.1h2.3c.3.5.5 1 .8 1.6h-.8c-.5-.3-1-.5-1.6-.8-.2-.2-.4-.5-.7-.8z"/><path class="st1" d="M701.2 64.9c.5.3 1 .5 1.6.8h-.8c-.3 0-.5 0-.8-.1v-.7zM717.7 15.4v.8c0 .5.1 1 .1 1.5l-.1.1v-2.4zM689.4 79.9l-.3.3c.1-.2.2-.3.3-.3zM691 80.6l-.8.8c.3-.2.5-.5.8-.8zM694.9 78.3c.3.5.6 1 .8 1.5-.3.2-.5.5-.8.7h-1.5l.1-.1c0-.5 0-1-.1-1.4.2-.3.5-.5.7-.8.2.1.5.1.8.1zM693.3 76.7h1.5v.7l-.8.8h-.8c.1-.4.1-.9.1-1.5zM693.3 81.4l-.8-.8c.3 0 .6-.1.9-.1l-.1.1v.8z"/><path class="st1" d="M693.3 78.3h.8c-.2.3-.5.5-.7.8 0-.3-.1-.6-.1-.8zM699.6 49.2l-.8-.8h.8l.8.8h-.8zM702.7 49.9c-.2 0-.5.1-.7.1v-.8h.7v.7zM699.6 48.4h-.8v-.7c.3.3.6.5.8.7z"/><circle class="st1" cx="700" cy="49.6" r=".6"/><path class="st1" d="M702.8 45.2c.3.2.5.5.8.7v.4c-.5-.1-.9-.1-1.4-.2-.3 0-.6-.1-.9-.1v-.8c.4.1.9 0 1.5 0zM702.8 45.2h-1.6c.5-.3 1-.5 1.6-.8-.1.3-.1.6 0 .8z"/><path class="st1" d="M704.3 47.6c-.2 0-.5.1-.7.1-.3-.1-.6-.1-.8-.1.3-.4.5-.8.8-1.2V46c.2.5.4 1 .7 1.6z"/><path class="st1" d="M703.5 46.3c-.3.4-.5.8-.8 1.2-.2-.5-.4-.9-.6-1.4.5.1.9.2 1.4.2zM912.6 166.3v.8c-.5-.2-1-.5-1.5-.7.5-.1 1-.1 1.5-.1zM908.6 164.7h.8v.8h-.8v-.8zM710.6 64.9c-.8.3-1.6.5-2.4.8h-1.5c.2-1 .4-2.1.7-3.1l.8-.8h1.6c.3.5.5 1 .8 1.6v1.5zM711.4 56.4c.2-.1.5-.2.7-.2 2.2 2.4-.4 2-1.5 2.4-.3.5-.5 1.1-.8 1.6h-.8c-.3-.5-.5-1-.8-1.6l.8-.8.8-.8c.5-.2 1-.4 1.6-.6zM699.6 75.1c.3-.5.5-1.1.8-1.6.3-.5.6-1 .8-1.5.3 1.1.6 2.1 1 3.2v.8l-.2-.1c-.8.5-1.6 1.1-2.3 1.6-.2-.5-.5-1.1-.7-1.6.1-.2.3-.5.6-.8zM706.6 78.2c-.8-.4-1.6-.9-2.4-1.3-.2-.1-.5-.1-.7-.2v-1.4c.5-.1 1.1-.2 1.6-.3.5 1 1 2.1 1.5 3.2z"/><path class="st1" d="M709.8 60.2c.3-.5.5-1.1.8-1.6-.8 1.6 3.4 3.1 0 4.7-.3-.5-.5-1.1-.8-1.6v-1.5zM708.1 68.2c-1 .5-1.9 1-2.9 1.5-.3-.2-.6-.5-.9-.7.6-.4 1.1-.8 1.7-1.2l-.1.4c.3-.1.5-.1.8-.2 0-.2 0-.5.1-.7h.6c.2.3.5.6.7.9z"/><path class="st1" d="M704.3 69c.3.2.6.5.9.7-.8.5-1.7 1.1-2.5 1.6V71v-.5-.8c.3-.2.5-.4.8-.5l.4-.1h.4zM703.5 75.3v1.4c-.3.2-.6.5-.9.7v-.1c-.2-.4-.5-.9-.7-1.4l.2.1c.2-.2.4-.4.7-.6.2-.1.4-.2.7-.1zM707.4 67.4h-.6c0-.3 0-.6-.1-.9.3-.3.5-.5.7-.8h.8v1.6c-.2 0-.5 0-.8.1zM709.7 73.5h-1.3 1.3z"/><path class="st1" d="M702.8 75.3c-.2.2-.4.4-.7.6v-.8c.3.1.5.2.7.2zM707.4 67.4c.3 0 .6 0 .9-.1 0 .3-.1.6-.1.9l-.8-.8zM710.6 64.9v-.8.8zM721.6 40.5c.3-1 .5-2.1.8-3.1h.7c0 .3.1.5.1.8v2.4c0 .3 0 .5.1.8 0 .5 0 1 .1 1.4-.6-.2-1.1-.5-1.7-.7-.1-.5-.1-1-.1-1.6zM712.2 45.3c1.1-.3 2.1-.5 3.2-.8h.8v3.2c-.3 0-.5 0-.8-.1-1.1-.8-2.2-1.6-3.2-2.3zM713 43.7v-1.6h3.1c0 .3 0 .5.1.8-.5.3-1 .5-1.5.8l-.8.8c-.4-.3-.7-.5-.9-.8zM716 42.1h-3.1v-1.5c.5 0 1 0 1.5-.1h.8c.3.6.6 1.1.8 1.6z"/><path class="st1" d="M716.1 47.6v-2.4h2.4v.7c-.2.3-.5.6-.7 1 0 .2 0 .4-.1.6-.2.3-.4.5-.5.8h-.3c-.3-.1-.5-.4-.8-.7zM721.6 40.5v0zM723.3 42.8c0-.5 0-1-.1-1.4h1.5c.3 0 .5 0 .8.1-.5.4-1 .9-1.5 1.3h-.7zM723.1 37.4h-.7c-.6 0-1.2-.1-1.8-.1l.3-.6c.2 0 .4-.1.6-.1h1.7v.8h-.1z"/><path class="st1" d="M720.9 36.7l-.3.6c-.5 0-.9.1-1.4.1v-.8c0-.2 0-.5.1-.7l-.1-.1c.3-.1.5-.1.8-.2v.3c.2.2.4.3.6.4.1.2.2.3.3.4zM718.5 46v-.7c.5.3 1.1.5 1.6.7-.3.2-.6.5-.9.7-.3-.2-.5-.4-.7-.7zM713.8 44.5l.8-.8h1.5v.7h-.8c-.5.1-1 .1-1.5.1zM716.1 43.7h-1.5c.5-.3 1-.5 1.5-.8v.8zM717.7 38.2c.2-.2.5-.2.7-.2-.2.1-.5.2-.7.2zM724.8 42.9c.1.2.1.4.2.6 0 .1-.1.2-.1.3-.1-.3-.1-.6-.1-.9zM706.7 82.2c.3-.5.6-1 .8-1.5l.8.8c-.6.2-1.1.4-1.6.7zM723.2 40.6v-2.4c.5.2 1 .5 1.6.8-.3.5-.5 1-.8 1.6h-.8z"/><path class="st1" d="M724.7 39c-.5-.3-1-.5-1.6-.8 0-.3-.1-.5-.1-.8h.9c.3.5.6 1 .8 1.6zM723.2 40.6c.3 0 .5 0 .8-.1l.8.8h-1.5c-.1-.2-.1-.4-.1-.7zM720.1 35.7c-.3.1-.5.1-.8.2v-.8c.2.2.5.4.8.6z"/><path class="st1" d="M719.3 35.1v.8l.1.1c-.3 0-.6-.1-.9-.1v-.7c.2-.1.5-.1.8-.1zM724 37.4h-.8v-.8c.3.3.5.6.8.8zM721.5 36.6c-.2 0-.4.1-.6.1l-.3-.3c.1-.1.1-.3.1-.4.3.2.6.4.8.6z"/><path class="st1" d="M720.8 36c0 .2-.1.3-.1.4-.2-.1-.4-.2-.6-.4.2-.1.4-.1.7 0zM717.6 53.1h-2.3c.3-.5.6-1 .9-1.6.5.3 1.1.5 1.6.8-.1.3-.1.6-.2.8zM720 51.5c-.3 0-.6.1-.9.1h-.7c.5-.3 1.1-.6 1.6-.9v.8z"/><path class="st1" d="M716.2 51.6c-.3.5-.6 1-.9 1.6-.8-.5-1.5-1-2.3-1.5.3-.3.6-.6.9-.8 1-.3 2-.6 3-.8-.3.5-.5 1-.7 1.5zM716.9 49c.2.1.5.1.7.2l-.8.8c.1-.3.1-.6.1-1zM720 51.5v-.7c.2.2.2.5 0 .7z"/><path class="st1" d="M716.9 49v.9c-1 .3-2 .6-3 .8l-.3-.1c-.4-.2-.8-.3-1.2-.5l-.2-.3c.1-.2.1-.5.2-.7 1-.6 2-1.1 3-1.7.3 0 .5 0 .8.1.3.3.5.5.7.8v.7zM718.5 46c.2.3.5.5.7.8-.5.1-1 .1-1.4.2.2-.4.4-.7.7-1zM717.1 48.4c.2-.3.4-.5.5-.8.1.2.3.3.4.5-.2.1-.6.2-.9.3zM851.3 52.4c-.8.5-1.6 1-2.4 1.6v-1.5l.8-.8.8-.8c.3-.5.5-1 .8-1.6l.8.8c-.3.7-.6 1.5-.8 2.3zM850.5 56.3v-.8h.8v.8h-.8zM693.3 81.4v-.8h1.5c.3 0 .5.1.8.1v.7h-2.3zM694.1 81.4h1.6v.8h-1.6v-.8zM693.3 83c-.3-.3-.6-.5-.9-.8.3.3.6.6.9.8zM849.7 44.5l-.8.8c.3-.3.5-.6.8-.8zM702.6 77.4c.3-.2.6-.5.9-.7.2.1.5.1.7.2v.7c-.5-.1-1-.2-1.6-.2z"/><path class="st1" d="M695.7 80.7c-.3 0-.5-.1-.8-.1.3-.2.5-.5.8-.7v.8zM701.9 75.9c.2.5.5.9.7 1.4v1.1c-1 0-2-.1-3.1-.1v-.7c.9-.6 1.6-1.1 2.4-1.7zM702.8 79.9v-.8.8zM698.9 75.9c.2.5.5 1.1.7 1.6h-1.5c-1.1 0-2.1 0-3.2-.1v-.7h.8c1-.2 2.1-.5 3.2-.8zM694.9 77.5c1.1 0 2.1 0 3.2.1v.8h-3.2c-.3 0-.5 0-.8-.1.3-.3.5-.6.8-.8z"/><path class="st1" d="M698 78.3v-.8h.7c-.2.3-.4.5-.7.8zM702 80zM852.9 46.9l.7.7-.7-.7zM851.3 48.4l.8-.8-.8.8zM850.5 50.8l-.8.8-.8-.8V50c.5.3 1.1.5 1.6.8z"/><path class="st1" d="M848.9 50.8l.8.8c-.3-.3-.5-.6-.8-.8zM832.5 82.3c.3 0 .5 0 .8-.1.2 0 .5.1.7.1v1.3c-.2.1-.5.2-.7.2-.3 0-.5 0-.8-.1l.1-.1c-.1-.4-.1-.9-.1-1.3zM831.7 83.7h.8l-.1.1v.8c-.2-.3-.5-.6-.7-.9z"/><path class="st1" d="M832.4 84.6v-.8c.3 0 .5 0 .8.1-.3.2-.5.4-.8.7zM832.4 86.2h-.8c.3-.1.5-.1.8 0zM833.2 81.4h-.8v-1.6h.8v1.6zM717.7 17.7c0-.5-.1-1-.1-1.5.3.5.5.9.8 1.4-.2 0-.4.1-.7.1zM714.7 22.4c-.1-.2-.1-.4-.1-.7l.8-.8c.3 0 .5-.1.8-.1.3 0 .5.1.8.1.1.2.1.5.2.7-.9.3-1.7.6-2.5.8z"/><path class="st1" d="M716.1 20.8c-.3 0-.5.1-.8.1.3 0 .5 0 .8-.1zM715.3 20.9l-.8.8v-.8h.8zM720.9 24.9l.7.7h-.7c-.1-.2-.1-.4 0-.7zM709 44.5c.3.3.5.6.8.8-.2-.3-.5-.6-.8-.8zM712.4 49.3c-.1.2-.1.5-.2.7-.5 0-1-.1-1.5-.1 0-.2 0-.4-.1-.7.6 0 1.2.1 1.8.1zM714.5 40.5c-.5 0-1 0-1.5.1 0-.3 0-.5-.1-.8.6.3 1.1.5 1.6.7zM718.5 35.8c.3 0 .6.1.9.1 0 .2 0 .5-.1.7-.3 0-.6-.1-.8-.1-.1-.2-.1-.5 0-.7zM702.8 69.6v.8c-.2.2-.5.4-.7.7-.5-.2-1-.5-1.5-.7l.6-.6c.5-.1 1-.1 1.6-.2zM701.1 69.7l-.6.6c0-.2-.1-.4-.1-.6h.7zM702.1 71.1c.2-.2.5-.4.7-.7v.5c-.3.1-.5.2-.7.2zM706.7 66.5c0 .3 0 .6.1.9-.3.2-.5.3-.8.5-.6.4-1.1.8-1.7 1.2h-.4l-.4.1c-.2-.1-.4-.1-.7-.1-.3-.1-.6-.1-.9-.2.2-.3.5-.5.7-.8.5-.5 1.1-1 1.6-1.5.5 0 1-.1 1.5-.1h1z"/><path class="st1" d="M704.3 66.5c-.5.5-1.1 1-1.6 1.5v-.8c.3-.5.5-1 .8-1.6h.8v.9z"/><path class="st1" d="M703.5 65.7c-.3.5-.5 1-.8 1.6l-.8-.8v-.8h1.6zM702.9 69c.2 0 .4 0 .7.1-.3.2-.6.4-.8.5 0-.2 0-.4.1-.6zM695.7 76.7h-.8v-.8c.2.3.5.6.8.8zM699.6 75.1c-.2.3-.5.5-.7.8 0-.3 0-.5-.1-.8h.8zM710.7 49.9c.5 0 1 .1 1.5.1l.2.3c.4.2.8.3 1.2.5l.3.1c-.3.3-.6.6-.9.8-1.1-.1-2.2-.1-3.2-.2v-1.4c.3-.1.6-.2.9-.2zM707.5 57.1v-.8.8zM704.3 61v-.8l.8-.8c.3-.2.6-.5.8-.7l.8.8c-.3.5-.7.9-1 1.4-.2.1-.4.1-.6.2-.2 0-.5-.1-.8-.1zM706.8 59.5l-.8-.8h1.5c-.3.2-.5.5-.7.8z"/><path class="st1" d="M705.1 59.4l-.8.8c.3-.3.6-.5.8-.8zM706.8 59.5c.2-.3.5-.6.7-.8h.8c.3.5.5 1 .8 1.6l-.7.7-.1.1c-.8 0-1.6-.1-2.4-.1.2-.6.5-1 .9-1.5zM711.4 56.4c-.5.2-1 .5-1.5.7 0-.3 0-.6.1-.9.4 0 .9.1 1.4.2zM707.5 57.1v-.8.8zM709 57.9l-.8.8.8-.8zM709.8 57.1l-.8.8.8-.8zM704.3 61c.3 0 .6 0 .8.1 0 .5 0 1-.1 1.5-.2 0-.5 0-.7.1h-.8c0-.3.1-.5.1-.8.3-.4.5-.6.7-.9z"/><path class="st1" d="M703.6 61.8c0 .3-.1.5-.1.8-.2 0-.4.1-.6.1-.3-.2-.5-.4-.8-.6.6-.1 1-.2 1.5-.3zM703 62.7c.2 0 .4-.1.6-.1h.8c.2 0 .5 0 .7-.1h2.4c-.2 1-.5 2.1-.7 3.1 0 .3-.1.5-.1.8h-.8c-.5-.3-1-.5-1.5-.8h-.8c-.3-.5-.5-1-.8-1.6v-.8c0-.1.1-.3.2-.5z"/><path class="st1" d="M707.4 62.6H705c0-.5 0-1 .1-1.5.2-.1.4-.1.6-.2.8 0 1.6.1 2.5.1v.8l-.8.8zM708.2 61.8V61l.1-.1.7-.7h.8v1.6h-1.6zM706.7 66.5c0-.3.1-.5.1-.8h.7c-.3.3-.6.5-.8.8zM706 67.8c.3-.2.5-.3.8-.5 0 .2-.1.5-.1.7-.3.1-.5.1-.8.2l.1-.4z"/><path class="st1" d="M705.9 68.2c.3-.1.5-.1.8-.2-.3.1-.5.1-.8.2zM713.6 50.7c-.4-.2-.8-.4-1.2-.5.4.2.8.4 1.2.5zM704.3 65.7c.5.3 1 .5 1.5.8-.5 0-1 .1-1.5.1v-.9zM709 60.2l-.7.7c.2-.2.5-.4.7-.7zM705.1 62.5c-.2 0-.5 0-.7.1.2 0 .5 0 .7-.1z"/></g></g></switch></svg>